<svg xmlns="http://www.w3.org/2000/svg" xmlns:svg="http://www.w3.org/2000/svg" xmlns:xlink="http://www.w3.org/1999/xlink" id="svg4908" width="16" height="16" version="1.0"><defs id="defs4910"><linearGradient id="linearGradient7273"><stop style="stop-color:#fff;stop-opacity:1" id="stop7275" offset="0"/><stop style="stop-color:#eeeeec;stop-opacity:1" id="stop7277" offset="1"/></linearGradient><linearGradient id="linearGradient7261"><stop style="stop-color:#babdb6;stop-opacity:1" id="stop7263" offset="0"/><stop style="stop-color:#eeeeec;stop-opacity:1" id="stop7265" offset="1"/></linearGradient><linearGradient id="linearGradient7247"><stop style="stop-color:#000;stop-opacity:.247" id="stop7249" offset="0"/><stop style="stop-color:#000;stop-opacity:0" id="stop7251" offset="1"/></linearGradient><linearGradient id="linearGradient6407"><stop style="stop-color:#888a85;stop-opacity:1" id="stop6409" offset="0"/><stop style="stop-color:#d3d7cf;stop-opacity:1" id="stop6411" offset="1"/></linearGradient><linearGradient id="linearGradient6379"><stop style="stop-color:#eeeeec;stop-opacity:1" id="stop6381" offset="0"/><stop style="stop-color:#888a85;stop-opacity:1" id="stop6383" offset="1"/></linearGradient><linearGradient id="linearGradient7659" x1="12.608" x2="12.275" y1="11.465" y2="14.703" gradientUnits="userSpaceOnUse" xlink:href="#linearGradient7261"/><linearGradient id="linearGradient7661" x1="-7.367" x2="-8.151" y1="9.845" y2="16.342" gradientTransform="matrix(0.7893314,0,0,0.6736435,16.683392,1.9372086)" gradientUnits="userSpaceOnUse" xlink:href="#linearGradient6379"/><linearGradient id="linearGradient7663" x1="-12.853" x2="-14.291" y1="11.409" y2="3.83" gradientTransform="matrix(1.2000001,0,0,0.6666666,21.200001,2.0000001)" gradientUnits="userSpaceOnUse" xlink:href="#linearGradient6407"/><linearGradient id="linearGradient7665" x1="2.5" x2="3" y1="10" y2="5.5" gradientUnits="userSpaceOnUse" xlink:href="#linearGradient7247"/><linearGradient id="linearGradient7667" x1="1.688" x2="1.688" y1="10.313" y2="5.531" gradientUnits="userSpaceOnUse" xlink:href="#linearGradient7273"/></defs><metadata id="metadata4913"/><g id="layer1"><g id="g7628"><rect id="rect6639" width="15" height="11" x=".5" y="4.5" rx="1.547" ry="1.547" style="opacity:1;fill:url(#linearGradient7659);fill-opacity:1;fill-rule:evenodd;stroke:#888a85;stroke-width:1;stroke-linecap:round;stroke-linejoin:miter;marker:none;marker-start:none;marker-mid:none;marker-end:none;stroke-miterlimit:4;stroke-dasharray:none;stroke-dashoffset:.67741674;stroke-opacity:1;visibility:visible;display:inline;overflow:visible;enable-background:accumulate"/><path style="fill:url(#linearGradient7661);fill-opacity:1;stroke:none;stroke-width:1;stroke-linecap:round;stroke-linejoin:round;stroke-miterlimit:4;stroke-dashoffset:.7;stroke-opacity:1" id="path7223" d="M 1.5,8 L 1.5,11.5 L 5,12 L 11,12 L 14.5,11.5 L 14.5,8 L 1.5,8 z"/><rect style="fill:url(#linearGradient7663);fill-opacity:1;stroke:none;stroke-width:1;stroke-linecap:round;stroke-linejoin:round;stroke-miterlimit:4;stroke-dasharray:none;stroke-dashoffset:.7;stroke-opacity:1" id="rect7227" width="12" height="2" x="2" y="6"/><path id="path7245" d="M 2.5,6.5 L 2.5,10.5 L 5,10.5 C 5.2675647,10.493801 5.5264505,10.595104 5.71875,10.78125 L 6.4375,11.5 L 9.5625,11.5 L 10.28125,10.78125 C 10.473549,10.595104 10.732435,10.493801 11,10.5 L 13.5,10.5 L 13.5,6.5 L 2.5,6.5 z" style="opacity:1;fill:none;fill-opacity:1;fill-rule:evenodd;stroke:url(#linearGradient7665);stroke-width:.99999994;stroke-linecap:round;stroke-linejoin:miter;marker:none;marker-start:none;marker-mid:none;marker-end:none;stroke-miterlimit:4;stroke-dasharray:none;stroke-dashoffset:.67741674;stroke-opacity:1;visibility:visible;display:inline;overflow:visible;enable-background:accumulate"/><rect id="rect7269" width="13" height="9" x="1.5" y="5.5" rx=".516" ry=".516" style="opacity:.55;fill:none;fill-opacity:1;fill-rule:evenodd;stroke:#fff;stroke-width:.99999988;stroke-linecap:round;stroke-linejoin:miter;marker:none;marker-start:none;marker-mid:none;marker-end:none;stroke-miterlimit:4;stroke-dasharray:none;stroke-dashoffset:.67741674;stroke-opacity:1;visibility:visible;display:inline;overflow:visible;enable-background:accumulate"/><path id="rect7218" d="M 2.03125,5.5 C 1.7369613,5.5 1.5,5.7369612 1.5,6.03125 L 1.5,10.96875 C 1.5,11.263039 1.7369612,11.5 2.03125,11.5 L 5,11.5 L 6,12.5 L 10,12.5 L 11,11.5 L 13.96875,11.5 C 14.263039,11.5 14.5,11.263039 14.5,10.96875 L 14.5,6.03125 C 14.5,5.7369613 14.263039,5.5 13.96875,5.5 L 2.03125,5.5 z" style="opacity:1;fill:none;fill-opacity:1;fill-rule:evenodd;stroke:url(#linearGradient7667);stroke-width:.99999994;stroke-linecap:round;stroke-linejoin:miter;marker:none;marker-start:none;marker-mid:none;marker-end:none;stroke-miterlimit:4;stroke-dasharray:none;stroke-dashoffset:.67741674;stroke-opacity:1;visibility:visible;display:inline;overflow:visible;enable-background:accumulate"/><g id="g7562" transform="translate(20,1)"><rect style="fill:#4e9a06;fill-opacity:1;fill-rule:evenodd;stroke:none;stroke-width:2;stroke-linecap:round;stroke-linejoin:miter;stroke-miterlimit:4;stroke-dasharray:none;stroke-dashoffset:.69999992;stroke-opacity:1" id="rect10158" width="1" height="1" x="-4" y="8" transform="matrix(0,-1,-1,0,0,0)"/><rect style="fill:#4e9a06;fill-opacity:1;fill-rule:evenodd;stroke:none;stroke-width:2;stroke-linecap:round;stroke-linejoin:miter;stroke-miterlimit:4;stroke-dasharray:none;stroke-dashoffset:.69999992;stroke-opacity:1" id="rect10160" width="1" height="1" x="-5" y="9" transform="matrix(0,-1,-1,0,0,0)"/><rect style="fill:#4e9a06;fill-opacity:1;fill-rule:evenodd;stroke:none;stroke-width:2;stroke-linecap:round;stroke-linejoin:miter;stroke-miterlimit:4;stroke-dasharray:none;stroke-dashoffset:.69999992;stroke-opacity:1" id="rect10162" width="1" height="1" x="-6" y="10" transform="matrix(0,-1,-1,0,0,0)"/><rect style="fill:#4e9a06;fill-opacity:1;fill-rule:evenodd;stroke:none;stroke-width:2;stroke-linecap:round;stroke-linejoin:miter;stroke-miterlimit:4;stroke-dasharray:none;stroke-dashoffset:.69999992;stroke-opacity:1" id="rect10164" width="1" height="1" x="-7" y="11" transform="matrix(0,-1,-1,0,0,0)"/><rect id="rect10166" width="1" height="1" x="-3" y="7" transform="matrix(0,-1,-1,0,0,0)" style="fill:#4e9a06;fill-opacity:1;fill-rule:evenodd;stroke:none;stroke-width:2;stroke-linecap:round;stroke-linejoin:miter;stroke-miterlimit:4;stroke-dasharray:none;stroke-dashoffset:.69999992;stroke-opacity:1"/></g><g id="g7569" transform="translate(21,1)"><rect style="fill:#4e9a06;fill-opacity:1;fill-rule:evenodd;stroke:none;stroke-width:2;stroke-linecap:round;stroke-linejoin:miter;stroke-miterlimit:4;stroke-dasharray:none;stroke-dashoffset:.69999992;stroke-opacity:1" id="rect10150" width="1" height="1" x="-7" y="13" transform="matrix(0,-1,-1,0,0,0)"/><rect style="fill:#4e9a06;fill-opacity:1;fill-rule:evenodd;stroke:none;stroke-width:2;stroke-linecap:round;stroke-linejoin:miter;stroke-miterlimit:4;stroke-dasharray:none;stroke-dashoffset:.69999992;stroke-opacity:1" id="rect10152" width="1" height="1" x="-6" y="14" transform="matrix(0,-1,-1,0,0,0)"/><rect style="fill:#4e9a06;fill-opacity:1;fill-rule:evenodd;stroke:none;stroke-width:2;stroke-linecap:round;stroke-linejoin:miter;stroke-miterlimit:4;stroke-dasharray:none;stroke-dashoffset:.69999992;stroke-opacity:1" id="rect10154" width="1" height="1" x="-5" y="15" transform="matrix(0,-1,-1,0,0,0)"/><rect style="fill:#4e9a06;fill-opacity:1;fill-rule:evenodd;stroke:none;stroke-width:2;stroke-linecap:round;stroke-linejoin:miter;stroke-miterlimit:4;stroke-dasharray:none;stroke-dashoffset:.69999992;stroke-opacity:1" id="rect10156" width="1" height="1" x="-4" y="16" transform="matrix(0,-1,-1,0,0,0)"/><rect id="rect10168" width="1" height="1" x="-3" y="17" transform="matrix(0,-1,-1,0,0,0)" style="fill:#4e9a06;fill-opacity:1;fill-rule:evenodd;stroke:none;stroke-width:2;stroke-linecap:round;stroke-linejoin:miter;stroke-miterlimit:4;stroke-dasharray:none;stroke-dashoffset:.69999992;stroke-opacity:1"/></g><path id="rect7498" d="M 6.5,0.5 L 6.5,2.5 L 3.5,2.5 L 3.5,3.5 L 8,7.5 L 12.5,3.5 L 12.5,2.5 L 9.5,2.5 L 9.5,0.5 L 6.5,0.5 z" style="opacity:1;fill:#8ae234;fill-opacity:1;fill-rule:evenodd;stroke:#4e9a06;stroke-width:.99999994;stroke-linecap:round;stroke-linejoin:miter;marker:none;marker-start:none;marker-mid:none;marker-end:none;stroke-miterlimit:4;stroke-dasharray:none;stroke-dashoffset:.67741674;stroke-opacity:1;visibility:visible;display:inline;overflow:visible;enable-background:accumulate"/><path id="path7625" d="M 7.5,1.5 L 7.5,2.5 C 7.4999448,3.0522619 7.0522619,3.4999448 6.5,3.5 L 5,3.5 L 8,6.15625 L 11,3.5 L 9.5,3.5 C 8.9477381,3.4999448 8.5000552,3.0522619 8.5,2.5 L 8.5,1.5 L 7.5,1.5 z" style="opacity:.6;fill:none;fill-opacity:1;fill-rule:evenodd;stroke:#fff;stroke-width:.99999994;stroke-linecap:round;stroke-linejoin:miter;marker:none;marker-start:none;marker-mid:none;marker-end:none;stroke-miterlimit:4;stroke-dasharray:none;stroke-dashoffset:.67741674;stroke-opacity:1;visibility:visible;display:inline;overflow:visible;enable-background:accumulate"/><g id="g7605"><rect style="opacity:.4;fill:#fff;fill-opacity:1;fill-rule:evenodd;stroke:none;stroke-width:2;stroke-linecap:round;stroke-linejoin:miter;stroke-miterlimit:4;stroke-dasharray:none;stroke-dashoffset:.69999992;stroke-opacity:1" id="rect7578" width="1" height="1" x="-7" y="-8" transform="matrix(0,-1,-1,0,0,0)"/><rect style="opacity:.4;fill:#fff;fill-opacity:1;fill-rule:evenodd;stroke:none;stroke-width:2;stroke-linecap:round;stroke-linejoin:miter;stroke-miterlimit:4;stroke-dasharray:none;stroke-dashoffset:.69999992;stroke-opacity:1" id="rect7580" width="1" height="1" x="-6" y="-7" transform="matrix(0,-1,-1,0,0,0)"/><rect style="opacity:.4;fill:#fff;fill-opacity:1;fill-rule:evenodd;stroke:none;stroke-width:2;stroke-linecap:round;stroke-linejoin:miter;stroke-miterlimit:4;stroke-dasharray:none;stroke-dashoffset:.69999992;stroke-opacity:1" id="rect7582" width="1" height="1" x="-5" y="-6" transform="matrix(0,-1,-1,0,0,0)"/><rect style="opacity:.4;fill:#fff;fill-opacity:1;fill-rule:evenodd;stroke:none;stroke-width:2;stroke-linecap:round;stroke-linejoin:miter;stroke-miterlimit:4;stroke-dasharray:none;stroke-dashoffset:.69999992;stroke-opacity:1" id="rect7584" width="1" height="1" x="-4" y="-5" transform="matrix(0,-1,-1,0,0,0)"/><rect style="opacity:.4;fill:#fff;fill-opacity:1;fill-rule:evenodd;stroke:none;stroke-width:2;stroke-linecap:round;stroke-linejoin:miter;stroke-miterlimit:4;stroke-dasharray:none;stroke-dashoffset:.69999992;stroke-opacity:1" id="rect7586" width="1" height="1" x="-4" y="-12" transform="matrix(0,-1,-1,0,0,0)"/><rect style="opacity:.4;fill:#fff;fill-opacity:1;fill-rule:evenodd;stroke:none;stroke-width:2;stroke-linecap:round;stroke-linejoin:miter;stroke-miterlimit:4;stroke-dasharray:none;stroke-dashoffset:.69999992;stroke-opacity:1" id="rect7588" width="1" height="1" x="-5" y="-11" transform="matrix(0,-1,-1,0,0,0)"/><rect style="opacity:.4;fill:#fff;fill-opacity:1;fill-rule:evenodd;stroke:none;stroke-width:2;stroke-linecap:round;stroke-linejoin:miter;stroke-miterlimit:4;stroke-dasharray:none;stroke-dashoffset:.69999992;stroke-opacity:1" id="rect7590" width="1" height="1" x="-6" y="-10" transform="matrix(0,-1,-1,0,0,0)"/><rect style="opacity:.4;fill:#fff;fill-opacity:1;fill-rule:evenodd;stroke:none;stroke-width:2;stroke-linecap:round;stroke-linejoin:miter;stroke-miterlimit:4;stroke-dasharray:none;stroke-dashoffset:.69999992;stroke-opacity:1" id="rect7592" width="1" height="1" x="-7" y="-9" transform="matrix(0,-1,-1,0,0,0)"/></g></g></g></svg>