<svg xmlns="http://www.w3.org/2000/svg" xmlns:svg="http://www.w3.org/2000/svg" xmlns:xlink="http://www.w3.org/1999/xlink" id="svg4908" width="22" height="22" version="1.0"><defs id="defs4910"><linearGradient id="linearGradient5410"><stop style="stop-color:#000;stop-opacity:1" id="stop5412" offset="0"/><stop style="stop-color:#000;stop-opacity:0" id="stop5414" offset="1"/></linearGradient><linearGradient id="linearGradient6485"><stop style="stop-color:#fff;stop-opacity:1" id="stop6487" offset="0"/><stop style="stop-color:#eeeeec;stop-opacity:1" id="stop6489" offset="1"/></linearGradient><linearGradient id="linearGradient6461"><stop style="stop-color:#babdb6;stop-opacity:1" id="stop6463" offset="0"/><stop style="stop-color:#eeeeec;stop-opacity:1" id="stop6465" offset="1"/></linearGradient><linearGradient id="linearGradient6423"><stop style="stop-color:#888a85;stop-opacity:1" id="stop6425" offset="0"/><stop style="stop-color:#babdb6;stop-opacity:.93043476" id="stop6427" offset="1"/></linearGradient><linearGradient id="linearGradient6417"><stop id="stop6419" offset="0" style="stop-color:#fff;stop-opacity:1"/><stop id="stop6421" offset="1" style="stop-color:#eeeeec;stop-opacity:1"/></linearGradient><linearGradient id="linearGradient6407"><stop style="stop-color:#888a85;stop-opacity:1" id="stop6409" offset="0"/><stop style="stop-color:#d3d7cf;stop-opacity:1" id="stop6411" offset="1"/></linearGradient><linearGradient id="linearGradient6379"><stop style="stop-color:#eeeeec;stop-opacity:1" id="stop6381" offset="0"/><stop style="stop-color:#888a85;stop-opacity:1" id="stop6383" offset="1"/></linearGradient><filter id="filter8912" width="1.129" height="1.709" x="-.064" y="-.355"><feGaussianBlur id="feGaussianBlur8914" stdDeviation=".591"/></filter><linearGradient id="linearGradient6297" x1="6.813" x2="6.813" y1="14.5" y2="8.708" gradientUnits="userSpaceOnUse" xlink:href="#linearGradient5410"/><radialGradient id="radialGradient7315" cx="5.816" cy="22.472" r="8.781" fx="5.816" fy="22.472" gradientTransform="matrix(2.8722896,0,0,1.0638862,-10.1581,-35.72983)" gradientUnits="userSpaceOnUse" xlink:href="#linearGradient6485"/><linearGradient id="linearGradient7320" x1="-14.93" x2="-17.406" y1="8.918" y2="15.603" gradientTransform="translate(22,-29)" gradientUnits="userSpaceOnUse" xlink:href="#linearGradient6423"/><linearGradient id="linearGradient7323" x1="-2.281" x2="-5.063" y1="1.844" y2="14" gradientTransform="translate(22,-29)" gradientUnits="userSpaceOnUse" xlink:href="#linearGradient6417"/><linearGradient id="linearGradient7326" x1="-12.853" x2="-14.291" y1="11.409" y2="3.83" gradientTransform="translate(22,-27)" gradientUnits="userSpaceOnUse" xlink:href="#linearGradient6407"/><linearGradient id="linearGradient7329" x1="-7.367" x2="-7.367" y1="10.963" y2="15.818" gradientTransform="translate(22,-29)" gradientUnits="userSpaceOnUse" xlink:href="#linearGradient6379"/><linearGradient id="linearGradient7332" x1="-11.697" x2="-13.038" y1="11.255" y2="17.627" gradientTransform="matrix(1,0,0,0.8666666,22,-26.4)" gradientUnits="userSpaceOnUse" xlink:href="#linearGradient6461"/></defs><metadata id="metadata4913"/><g id="layer1"><g id="g7401" transform="translate(0,30)"><rect id="rect8882" width="22" height="4" x="0" y="16" rx="2.089" ry="2.286" transform="matrix(0.9573863,0,0,0.875,0.5,-26)" style="opacity:.3;fill:#2e3436;fill-opacity:1;stroke:none;stroke-width:1;stroke-linecap:round;stroke-linejoin:round;stroke-miterlimit:4;stroke-dasharray:none;stroke-dashoffset:0;stroke-opacity:1;filter:url(#filter8912)"/><path id="rect5370" d="M 5.46875,-22.5 C 4.928514,-22.5 4.70057,-22.088044 4.5,-21.660417 C 4.5,-21.660417 1.5,-14.266668 1.5,-14.266668 L 1.5,-10.420834 C 1.5,-9.909499 1.972497,-9.500001 2.5625,-9.500001 L 19.4375,-9.500001 C 20.027503,-9.500001 20.5,-9.909499 20.5,-10.420834 L 20.5,-14.266668 C 20.5,-14.266668 17.5,-21.660417 17.5,-21.660417 C 17.29943,-22.088044 17.071486,-22.5 16.53125,-22.5 L 5.46875,-22.5 z" style="fill:url(#linearGradient7332);fill-opacity:1;stroke:#888a85;stroke-width:.99999988;stroke-linecap:round;stroke-linejoin:round;stroke-miterlimit:4;stroke-dasharray:none;stroke-dashoffset:.7;stroke-opacity:1"/><path id="rect6376" d="M 6,-20 L 3.65625,-15 L 4.5,-14 L 18,-14 L 18.34375,-15 L 16,-20 L 6,-20 z" style="fill:url(#linearGradient7329);fill-opacity:1;stroke:none;stroke-width:1;stroke-linecap:round;stroke-linejoin:round;stroke-miterlimit:4;stroke-dashoffset:.7;stroke-opacity:1"/><rect id="rect5397" width="10" height="3" x="6" y="-21" style="fill:url(#linearGradient7326);fill-opacity:1;stroke:none;stroke-width:1;stroke-linecap:round;stroke-linejoin:round;stroke-miterlimit:4;stroke-dasharray:none;stroke-dashoffset:.7;stroke-opacity:1"/><path id="path6374" d="M 16,-21.5 L 16,-18 L 17.34375,-15 L 18.8125,-15 L 16,-21.5 z" style="fill:url(#linearGradient7323);fill-opacity:1;stroke:none;stroke-width:1;stroke-linecap:round;stroke-linejoin:round;stroke-miterlimit:4;stroke-dashoffset:.7;stroke-opacity:1"/><path id="rect6371" d="M 6,-21.5 L 3.1875,-15 L 4.65625,-15 L 6,-18 L 6,-21.5 z" style="fill:url(#linearGradient7320);fill-opacity:1;stroke:none;stroke-width:1;stroke-linecap:round;stroke-linejoin:round;stroke-miterlimit:4;stroke-dashoffset:.7;stroke-opacity:1"/><path id="path6449" d="M -16.40625,5.5 C -16.436803,5.5492895 -16.490718,5.6417275 -16.5625,5.8125 C -16.5625,5.8125 -16.562436,5.8435693 -16.5625,5.84375 C -16.581506,5.8977984 -19.374973,13.800705 -19.5,14.15625 L -19.5,18.4375 C -19.5,18.493611 -19.493611,18.5 -19.4375,18.5 L -2.5625,18.5 C -2.5063892,18.5 -2.5,18.493611 -2.5,18.4375 L -2.5,14.15625 C -2.6250267,13.800705 -5.418494,5.8977984 -5.4375,5.84375 C -5.4375636,5.8435693 -5.4375,5.8125 -5.4375,5.8125 C -5.5092816,5.6417275 -5.5631974,5.5492896 -5.59375,5.5 L -16.40625,5.5 z" transform="matrix(1,0,0,0.8461538,22,-26.153846)" style="opacity:.42672412;fill:none;fill-opacity:1;stroke:#fff;stroke-width:1.08711457;stroke-linecap:round;stroke-linejoin:round;stroke-miterlimit:4;stroke-dasharray:none;stroke-dashoffset:.7;stroke-opacity:1"/><path id="path6523" d="M 6.21875,6.46875 C 6.154118,6.6801314 6.078055,6.9854761 5.96875,7.34375 C 5.75014,8.0602978 5.4616777,9.0359982 5.15625,10.03125 C 4.7089362,11.488845 4.3480127,12.543344 4.03125,13.53125 L 7.5,13.53125 C 7.7574313,13.529938 8.0048003,13.631135 8.1875,13.8125 L 8.90625,14.53125 L 13.09375,14.53125 L 13.8125,13.8125 C 13.9952,13.631135 14.242569,13.529938 14.5,13.53125 L 17.96875,13.53125 C 17.651987,12.543344 17.291064,11.488845 16.84375,10.03125 C 16.538322,9.0359982 16.24986,8.0602978 16.03125,7.34375 C 15.921945,6.9854761 15.845882,6.6801314 15.78125,6.46875 L 6.21875,6.46875 z" transform="matrix(1,0,0,0.7560969,0,-25.455783)" style="opacity:.28017243;fill:none;fill-opacity:1;stroke:url(#linearGradient6297);stroke-width:1.15003562;stroke-linecap:round;stroke-linejoin:round;stroke-miterlimit:4;stroke-dashoffset:.7;stroke-opacity:1"/><path id="path5384" d="M 5.59375,-21.5 C 5.565772,-21.464245 5.500442,-21.389755 5.4375,-21.275 C 5.423835,-21.250086 5.420301,-21.252653 5.40625,-21.225 C 5.365295,-21.131828 2.951697,-15.529323 2.5,-14.5 L 7.5,-14.5 L 8.5,-13.5 L 13.5,-13.5 L 14.5,-14.5 L 19.5,-14.5 C 19.048303,-15.529323 16.634705,-21.131828 16.59375,-21.225 C 16.5934,-21.225796 16.5625,-21.275 16.5625,-21.275 C 16.499558,-21.389755 16.434228,-21.464245 16.40625,-21.5 L 5.59375,-21.5 z" style="fill:none;fill-opacity:1;stroke:url(#radialGradient7315);stroke-width:.99999994;stroke-linecap:round;stroke-linejoin:round;stroke-miterlimit:4;stroke-dashoffset:.7;stroke-opacity:1"/><g id="g5871" transform="translate(0,-29)"><g id="g9557" transform="matrix(0,-1,1,0,-5,13)"><path id="path9559" d="M 7.5,10.5 L 2,16 L 7.5,21.5 L 8.5,21.5 L 8.5,18.5 L 12.5,18.5 L 12.5,13.5 L 8.5,13.5 L 8.5,10.5 L 7.5,10.5 z" style="fill:#8ae234;fill-opacity:1;fill-rule:evenodd;stroke:#4e9a06;stroke-width:1px;stroke-linecap:butt;stroke-linejoin:miter;stroke-opacity:1"/><path style="opacity:.65;fill:none;fill-opacity:1;fill-rule:evenodd;stroke:#fff;stroke-width:1px;stroke-linecap:butt;stroke-linejoin:miter;stroke-opacity:1" id="path9561" d="M 11.5,14.53125 L 8.5,14.53125 C 8.22527,14.535314 7.9605998,14.42797 7.7663151,14.233685 C 7.5720303,14.0394 7.4646865,13.77473 7.46875,13.5 L 7.46875,11.96875 L 3.5,16 L 7.46875,20.03125 L 7.46875,18.5 C 7.4646865,18.22527 7.5720303,17.9606 7.7663151,17.766315 C 7.9605998,17.57203 8.22527,17.464686 8.5,17.46875 L 11.5,17.46875 L 11.5,14.53125 z"/></g><g id="g5841"><g id="g5795"><g id="g5787"><rect id="rect9565" width="1" height="1" x="-11" y="11" transform="matrix(0,-1,1,0,0,0)" style="fill:#4e9a06;fill-opacity:1;fill-rule:evenodd;stroke:none;stroke-width:2;stroke-linecap:round;stroke-linejoin:miter;stroke-miterlimit:4;stroke-dasharray:none;stroke-dashoffset:.69999992;stroke-opacity:1"/><rect id="rect9567" width="1" height="1" x="-10" y="12" transform="matrix(0,-1,1,0,0,0)" style="fill:#4e9a06;fill-opacity:1;fill-rule:evenodd;stroke:none;stroke-width:2;stroke-linecap:round;stroke-linejoin:miter;stroke-miterlimit:4;stroke-dasharray:none;stroke-dashoffset:.69999992;stroke-opacity:1"/><rect id="rect9569" width="1" height="1" x="-9" y="13" transform="matrix(0,-1,1,0,0,0)" style="fill:#4e9a06;fill-opacity:1;fill-rule:evenodd;stroke:none;stroke-width:2;stroke-linecap:round;stroke-linejoin:miter;stroke-miterlimit:4;stroke-dasharray:none;stroke-dashoffset:.69999992;stroke-opacity:1"/><rect id="rect9571" width="1" height="1" x="-8" y="14" transform="matrix(0,-1,1,0,0,0)" style="fill:#4e9a06;fill-opacity:1;fill-rule:evenodd;stroke:none;stroke-width:2;stroke-linecap:round;stroke-linejoin:miter;stroke-miterlimit:4;stroke-dasharray:none;stroke-dashoffset:.69999992;stroke-opacity:1"/><rect id="rect9573" width="1" height="1" x="-7" y="15" transform="matrix(0,-1,1,0,0,0)" style="fill:#4e9a06;fill-opacity:1;fill-rule:evenodd;stroke:none;stroke-width:2;stroke-linecap:round;stroke-linejoin:miter;stroke-miterlimit:4;stroke-dasharray:none;stroke-dashoffset:.69999992;stroke-opacity:1"/><rect style="fill:#4e9a06;fill-opacity:1;fill-rule:evenodd;stroke:none;stroke-width:2;stroke-linecap:round;stroke-linejoin:miter;stroke-miterlimit:4;stroke-dasharray:none;stroke-dashoffset:.69999992;stroke-opacity:1" id="rect9742" width="1" height="1" x="-6" y="16" transform="matrix(0,-1,1,0,0,0)"/></g><g id="g5779"><rect id="rect9575" width="1" height="1" x="-7" y="6" transform="matrix(0,-1,1,0,0,0)" style="fill:#4e9a06;fill-opacity:1;fill-rule:evenodd;stroke:none;stroke-width:2;stroke-linecap:round;stroke-linejoin:miter;stroke-miterlimit:4;stroke-dasharray:none;stroke-dashoffset:.69999992;stroke-opacity:1"/><rect id="rect9577" width="1" height="1" x="-8" y="7" transform="matrix(0,-1,1,0,0,0)" style="fill:#4e9a06;fill-opacity:1;fill-rule:evenodd;stroke:none;stroke-width:2;stroke-linecap:round;stroke-linejoin:miter;stroke-miterlimit:4;stroke-dasharray:none;stroke-dashoffset:.69999992;stroke-opacity:1"/><rect id="rect9579" width="1" height="1" x="-9" y="8" transform="matrix(0,-1,1,0,0,0)" style="fill:#4e9a06;fill-opacity:1;fill-rule:evenodd;stroke:none;stroke-width:2;stroke-linecap:round;stroke-linejoin:miter;stroke-miterlimit:4;stroke-dasharray:none;stroke-dashoffset:.69999992;stroke-opacity:1"/><rect id="rect9581" width="1" height="1" x="-10" y="9" transform="matrix(0,-1,1,0,0,0)" style="fill:#4e9a06;fill-opacity:1;fill-rule:evenodd;stroke:none;stroke-width:2;stroke-linecap:round;stroke-linejoin:miter;stroke-miterlimit:4;stroke-dasharray:none;stroke-dashoffset:.69999992;stroke-opacity:1"/><rect style="fill:#4e9a06;fill-opacity:1;fill-rule:evenodd;stroke:none;stroke-width:2;stroke-linecap:round;stroke-linejoin:miter;stroke-miterlimit:4;stroke-dasharray:none;stroke-dashoffset:.69999992;stroke-opacity:1" id="rect9740" width="1" height="1" x="-6" y="5" transform="matrix(0,-1,1,0,0,0)"/><rect id="rect5768" width="1" height="1" x="-11" y="10" transform="matrix(0,-1,1,0,0,0)" style="fill:#4e9a06;fill-opacity:1;fill-rule:evenodd;stroke:none;stroke-width:2;stroke-linecap:round;stroke-linejoin:miter;stroke-miterlimit:4;stroke-dasharray:none;stroke-dashoffset:.69999992;stroke-opacity:1"/></g></g><g id="g5827"><g id="g5820"><rect id="rect9585" width="1" height="1" x="-10" y="11" transform="matrix(0,-1,1,0,0,0)" style="opacity:.4;fill:#fff;fill-opacity:1;fill-rule:evenodd;stroke:none;stroke-width:2;stroke-linecap:round;stroke-linejoin:miter;stroke-miterlimit:4;stroke-dasharray:none;stroke-dashoffset:.69999992;stroke-opacity:1"/><rect id="rect9587" width="1" height="1" x="-9" y="12" transform="matrix(0,-1,1,0,0,0)" style="opacity:.4;fill:#fff;fill-opacity:1;fill-rule:evenodd;stroke:none;stroke-width:2;stroke-linecap:round;stroke-linejoin:miter;stroke-miterlimit:4;stroke-dasharray:none;stroke-dashoffset:.69999992;stroke-opacity:1"/><rect id="rect9589" width="1" height="1" x="-8" y="13" transform="matrix(0,-1,1,0,0,0)" style="opacity:.4;fill:#fff;fill-opacity:1;fill-rule:evenodd;stroke:none;stroke-width:2;stroke-linecap:round;stroke-linejoin:miter;stroke-miterlimit:4;stroke-dasharray:none;stroke-dashoffset:.69999992;stroke-opacity:1"/><rect id="rect9591" width="1" height="1" x="-7" y="14" transform="matrix(0,-1,1,0,0,0)" style="opacity:.4;fill:#fff;fill-opacity:1;fill-rule:evenodd;stroke:none;stroke-width:2;stroke-linecap:round;stroke-linejoin:miter;stroke-miterlimit:4;stroke-dasharray:none;stroke-dashoffset:.69999992;stroke-opacity:1"/><rect id="rect9725" width="1" height="1" x="-6" y="15" transform="matrix(0,-1,1,0,0,0)" style="opacity:.4;fill:#fff;fill-opacity:1;fill-rule:evenodd;stroke:none;stroke-width:2;stroke-linecap:round;stroke-linejoin:miter;stroke-miterlimit:4;stroke-dasharray:none;stroke-dashoffset:.69999992;stroke-opacity:1"/></g><g id="g5813"><rect id="rect9593" width="1" height="1" x="-7" y="7" transform="matrix(0,-1,1,0,0,0)" style="opacity:.4;fill:#fff;fill-opacity:1;fill-rule:evenodd;stroke:none;stroke-width:2;stroke-linecap:round;stroke-linejoin:miter;stroke-miterlimit:4;stroke-dasharray:none;stroke-dashoffset:.69999992;stroke-opacity:1"/><rect id="rect9595" width="1" height="1" x="-8" y="8" transform="matrix(0,-1,1,0,0,0)" style="opacity:.4;fill:#fff;fill-opacity:1;fill-rule:evenodd;stroke:none;stroke-width:2;stroke-linecap:round;stroke-linejoin:miter;stroke-miterlimit:4;stroke-dasharray:none;stroke-dashoffset:.69999992;stroke-opacity:1"/><rect id="rect9597" width="1" height="1" x="-9" y="9" transform="matrix(0,-1,1,0,0,0)" style="opacity:.4;fill:#fff;fill-opacity:1;fill-rule:evenodd;stroke:none;stroke-width:2;stroke-linecap:round;stroke-linejoin:miter;stroke-miterlimit:4;stroke-dasharray:none;stroke-dashoffset:.69999992;stroke-opacity:1"/><rect id="rect9727" width="1" height="1" x="-6" y="6" transform="matrix(0,-1,1,0,0,0)" style="opacity:.4;fill:#fff;fill-opacity:1;fill-rule:evenodd;stroke:none;stroke-width:2;stroke-linecap:round;stroke-linejoin:miter;stroke-miterlimit:4;stroke-dasharray:none;stroke-dashoffset:.69999992;stroke-opacity:1"/><rect id="rect5811" width="1" height="1" x="-10" y="10" transform="matrix(0,-1,1,0,0,0)" style="opacity:.4;fill:#fff;fill-opacity:1;fill-rule:evenodd;stroke:none;stroke-width:2;stroke-linecap:round;stroke-linejoin:miter;stroke-miterlimit:4;stroke-dasharray:none;stroke-dashoffset:.69999992;stroke-opacity:1"/></g></g></g></g></g></g></svg>