<svg xmlns="http://www.w3.org/2000/svg" xmlns:cc="http://web.resource.org/cc/" xmlns:svg="http://www.w3.org/2000/svg" xmlns:xlink="http://www.w3.org/1999/xlink" id="svg2" width="16" height="16" version="1.0"><defs id="defs4"><linearGradient id="linearGradient7250"><stop style="stop-color:#fff;stop-opacity:1" id="stop7252" offset="0"/><stop style="stop-color:#eeeeec;stop-opacity:1" id="stop7254" offset="1"/></linearGradient><linearGradient id="linearGradient6394"><stop style="stop-color:#729fcf;stop-opacity:1" id="stop6396" offset="0"/><stop style="stop-color:#fff;stop-opacity:1" id="stop6398" offset="1"/></linearGradient><linearGradient id="linearGradient6754"><stop style="stop-color:#729fcf;stop-opacity:1" id="stop6756" offset="0"/><stop style="stop-color:#729fcf;stop-opacity:0" id="stop6758" offset="1"/></linearGradient><radialGradient id="radialGradient9189" cx="10.652" cy="12.115" r="8" fx="10.652" fy="12.115" gradientTransform="matrix(2.5334112,0,0,1.5232935,-16.333372,-6.3398371)" gradientUnits="userSpaceOnUse" xlink:href="#linearGradient7250"/><linearGradient id="linearGradient9191" x1="-21.478" x2="-21.478" y1="-.806" y2="18.005" gradientTransform="matrix(0.6939763,0,0,0.6956677,55.887839,0.3331537)" gradientUnits="userSpaceOnUse" xlink:href="#linearGradient6394"/><linearGradient id="linearGradient9193" x1="-21.031" x2="-21.031" y1="16.188" y2="14.138" gradientTransform="matrix(0.6939763,0,0,1.5,55.887839,-13.5)" gradientUnits="userSpaceOnUse" xlink:href="#linearGradient6754"/></defs><metadata id="metadata7"/><g id="layer1"><g id="g7258"><path style="fill:url(#radialGradient9189);fill-opacity:1;stroke:#979894;stroke-width:.99999994;stroke-linecap:round;stroke-linejoin:miter;stroke-miterlimit:4;stroke-dasharray:none;stroke-dashoffset:.7;stroke-opacity:1" id="path7059" d="M 0.500008,0.4610068 L 0.500008,3.4610068 L 1.062508,3.4610068 C 1.307344,3.4610068 1.500008,3.6536708 1.500008,3.8985068 L 1.500008,5.0235068 C 1.500008,5.2683428 1.307344,5.4610068 1.062508,5.4610068 L 0.500008,5.4610068 L 0.500008,7.4610068 L 1.062508,7.4610068 C 1.307344,7.4610068 1.500008,7.6536708 1.500008,7.8985068 L 1.500008,9.023507 C 1.500008,9.268343 1.307344,9.461007 1.062508,9.461007 L 0.500008,9.461007 L 0.500008,11.461007 L 1.062508,11.461007 C 1.307344,11.461007 1.500008,11.653671 1.500008,11.898507 L 1.500008,13.023506 C 1.500008,13.268342 1.307344,13.461006 1.062508,13.461006 L 0.500008,13.461006 L 0.500008,15.461006 L 2.500008,15.461006 L 2.500008,14.898506 C 2.500008,14.65367 2.692672,14.461006 2.937508,14.461006 L 4.062508,14.461006 C 4.307344,14.461006 4.500008,14.65367 4.500008,14.898506 L 4.500008,15.461006 L 6.500008,15.461006 L 6.500008,14.898506 C 6.500008,14.65367 6.692672,14.461006 6.937508,14.461006 L 8.062508,14.461006 C 8.307344,14.461006 8.500008,14.65367 8.500008,14.898506 L 8.500008,15.461006 L 10.500008,15.461006 L 10.500008,14.898506 C 10.500008,14.65367 10.692672,14.461006 10.937508,14.461006 L 12.062508,14.461006 C 12.307344,14.461006 12.500008,14.65367 12.500008,14.898506 L 12.500008,15.461006 L 15.500008,15.461006 L 15.500008,12.461006 L 14.937508,12.461006 C 14.692672,12.461006 14.500008,12.268343 14.500008,12.023507 L 14.500008,10.898507 C 14.500008,10.653671 14.692672,10.461007 14.937508,10.461007 L 15.500008,10.461007 L 15.500008,8.4610068 L 14.937508,8.4610068 C 14.692672,8.4610068 14.500008,8.2683428 14.500008,8.0235068 L 14.500008,6.8985068 C 14.500008,6.6536708 14.692672,6.4610068 14.937508,6.4610068 L 15.500008,6.4610068 L 15.500008,4.4610068 L 14.937508,4.4610068 C 14.692672,4.4610068 14.500008,4.2683428 14.500008,4.0235068 L 14.500008,2.8985068 C 14.500008,2.6536708 14.692672,2.4610068 14.937508,2.4610068 L 15.500008,2.4610068 L 15.500008,0.4610068 L 13.500008,0.4610068 L 13.500008,1.0235068 C 13.500008,1.2683426 13.307344,1.4610068 13.062508,1.4610068 L 11.937508,1.4610068 C 11.692672,1.4610068 11.500008,1.2683425 11.500008,1.0235068 L 11.500008,0.4610068 L 9.500008,0.4610068 L 9.500008,1.0235068 C 9.500008,1.2683426 9.307344,1.4610068 9.062508,1.4610068 L 7.937508,1.4610068 C 7.692672,1.4610068 7.500008,1.2683425 7.500008,1.0235068 L 7.500008,0.4610068 L 5.500008,0.4610068 L 5.500008,1.0235068 C 5.500008,1.2683426 5.307344,1.4610068 5.062508,1.4610068 L 3.937508,1.4610068 C 3.692672,1.4610068 3.500008,1.2683425 3.500008,1.0235068 L 3.500008,0.4610068 L 0.500008,0.4610068 z"/><rect id="rect7212" width="9.022" height="9.022" x="3.493" y="3.485" rx=".325" ry=".326" style="fill:url(#linearGradient9191);fill-opacity:1;stroke:#729fcf;stroke-width:1;stroke-linecap:round;stroke-linejoin:miter;stroke-miterlimit:4;stroke-dasharray:none;stroke-dashoffset:.7;stroke-opacity:1"/><path id="path7214" d="M 10.779379,5.8984953 C 9.6301543,5.8984953 8.6974502,6.8334727 8.6974502,7.9854985 C 8.6974502,8.5284755 8.9002127,9.0271983 9.2396191,9.3985735 L 12.167332,9.3985735 L 12.167332,6.4419857 C 11.798255,6.1083393 11.31512,5.8984953 10.779379,5.8984953 z" style="fill:#fff;fill-opacity:1;stroke:none;stroke-width:1;stroke-linecap:round;stroke-linejoin:miter;stroke-miterlimit:4;stroke-dasharray:none;stroke-dashoffset:.7;stroke-opacity:1"/><rect id="rect7216" width="8.328" height="3" x="3.84" y="9" style="opacity:.78448277;fill:url(#linearGradient9193);fill-opacity:1;stroke:none;stroke-width:1;stroke-linecap:round;stroke-linejoin:miter;stroke-miterlimit:4;stroke-dasharray:none;stroke-dashoffset:.7;stroke-opacity:1"/><rect id="rect7218" width="6.97" height="7.007" x="4.518" y="4.493" style="opacity:.2;fill:none;fill-opacity:1;stroke:#fff;stroke-width:.99999994;stroke-linecap:round;stroke-linejoin:miter;stroke-miterlimit:4;stroke-dasharray:none;stroke-dashoffset:.7;stroke-opacity:1"/><path id="path7220" d="M 4.5335924,5.1593484 C 5.3376319,5.3860589 5.7467524,5.3489092 6.3360619,5.5909481 C 7.1454381,5.9233717 7.2324821,6.2682455 7.808293,6.5289441 C 7.7971901,6.4898525 7.84015,6.4498982 8.0046765,6.4745951 C 8.080363,6.4859561 8.0902209,6.648512 8.0902209,6.648512 C 8.6814505,6.8349781 9.2167734,6.7513234 9.5534373,6.9398924 C 10.259704,7.3354826 10.514368,7.6739646 11.245644,8.126806 C 10.471833,8.0148557 10.023343,7.6405162 9.3811049,7.4257455 C 8.8194678,7.2379276 8.2404362,7.2213672 8.0902209,7.0996087 L 7.8516665,7.3224403 L 7.9601003,7.5724458 C 7.5465307,7.7435147 7.1640033,7.681283 6.9191359,7.4093987 L 7.2878108,7.1920024 L 7.3668901,6.8166076 C 6.8582589,6.5491387 6.7212125,6.332354 6.2801142,6.0883242 C 5.7829183,5.8132583 5.2061852,5.7576171 4.5335924,5.1593484 z" style="fill:#555753;fill-opacity:1;fill-rule:evenodd;stroke:none;stroke-width:.1;stroke-linecap:butt;stroke-linejoin:miter;stroke-miterlimit:4;stroke-dasharray:none;stroke-opacity:1"/><text id="text7222" x="6.992" y="12.487" transform="scale(1.091719,0.9159866)" xml:space="preserve" style="font-size:2.00826573px;font-style:normal;font-weight:700;fill:#fff;fill-opacity:1;stroke:none;stroke-width:1px;stroke-linecap:butt;stroke-linejoin:miter;stroke-opacity:1;font-family:Bitstream Vera Sans"><tspan id="tspan7224" x="6.992" y="12.487">50-</tspan></text></g></g></svg>