<svg xmlns="http://www.w3.org/2000/svg" xmlns:svg="http://www.w3.org/2000/svg" xmlns:xlink="http://www.w3.org/1999/xlink" id="svg4908" width="22" height="22" version="1.0"><defs id="defs4910"><linearGradient id="linearGradient5410"><stop style="stop-color:#000;stop-opacity:1" id="stop5412" offset="0"/><stop style="stop-color:#000;stop-opacity:0" id="stop5414" offset="1"/></linearGradient><linearGradient id="linearGradient6485"><stop style="stop-color:#fff;stop-opacity:1" id="stop6487" offset="0"/><stop style="stop-color:#eeeeec;stop-opacity:1" id="stop6489" offset="1"/></linearGradient><linearGradient id="linearGradient6461"><stop style="stop-color:#babdb6;stop-opacity:1" id="stop6463" offset="0"/><stop style="stop-color:#eeeeec;stop-opacity:1" id="stop6465" offset="1"/></linearGradient><linearGradient id="linearGradient6423"><stop style="stop-color:#888a85;stop-opacity:1" id="stop6425" offset="0"/><stop style="stop-color:#babdb6;stop-opacity:.93043476" id="stop6427" offset="1"/></linearGradient><linearGradient id="linearGradient6417"><stop id="stop6419" offset="0" style="stop-color:#fff;stop-opacity:1"/><stop id="stop6421" offset="1" style="stop-color:#eeeeec;stop-opacity:1"/></linearGradient><linearGradient id="linearGradient6407"><stop style="stop-color:#888a85;stop-opacity:1" id="stop6409" offset="0"/><stop style="stop-color:#d3d7cf;stop-opacity:1" id="stop6411" offset="1"/></linearGradient><linearGradient id="linearGradient6379"><stop style="stop-color:#eeeeec;stop-opacity:1" id="stop6381" offset="0"/><stop style="stop-color:#888a85;stop-opacity:1" id="stop6383" offset="1"/></linearGradient><filter id="filter8912" width="1.129" height="1.709" x="-.064" y="-.355"><feGaussianBlur id="feGaussianBlur8914" stdDeviation=".591"/></filter><linearGradient id="linearGradient6273" x1="-11.697" x2="-13.038" y1="11.255" y2="17.627" gradientTransform="matrix(1,0,0,0.8666666,52,3.6)" gradientUnits="userSpaceOnUse" xlink:href="#linearGradient6461"/><linearGradient id="linearGradient6275" x1="-7.367" x2="-7.367" y1="10.83" y2="15.818" gradientTransform="translate(52,1)" gradientUnits="userSpaceOnUse" xlink:href="#linearGradient6379"/><linearGradient id="linearGradient6277" x1="-12.853" x2="-14.291" y1="11.409" y2="3.83" gradientTransform="translate(52,3)" gradientUnits="userSpaceOnUse" xlink:href="#linearGradient6407"/><linearGradient id="linearGradient6279" x1="-2.281" x2="-5.063" y1="1.844" y2="14" gradientTransform="translate(52,1)" gradientUnits="userSpaceOnUse" xlink:href="#linearGradient6417"/><linearGradient id="linearGradient6281" x1="-14.93" x2="-17.406" y1="8.918" y2="15.603" gradientTransform="translate(52,1)" gradientUnits="userSpaceOnUse" xlink:href="#linearGradient6423"/><linearGradient id="linearGradient6283" x1="6.813" x2="6.813" y1="14.5" y2="8.708" gradientUnits="userSpaceOnUse" xlink:href="#linearGradient5410"/><radialGradient id="radialGradient6285" cx="5.816" cy="22.472" r="8.781" fx="5.816" fy="22.472" gradientTransform="matrix(2.8722896,0,0,1.0638862,19.8419,-5.7298304)" gradientUnits="userSpaceOnUse" xlink:href="#linearGradient6485"/></defs><metadata id="metadata4913"/><g id="layer1"><g id="g6228" transform="translate(-30,0)"><rect id="rect6894" width="22" height="4" x="0" y="16" rx="2.089" ry="2.286" transform="matrix(0.9573863,0,0,0.875,30.5,4)" style="opacity:.3;fill:#2e3436;fill-opacity:1;stroke:none;stroke-width:1;stroke-linecap:round;stroke-linejoin:round;stroke-miterlimit:4;stroke-dasharray:none;stroke-dashoffset:0;stroke-opacity:1;filter:url(#filter8912)"/><path id="path6896" d="M 35.46875,7.4999998 C 34.928514,7.4999998 34.70057,7.9119562 34.5,8.3395831 C 34.5,8.3395831 31.5,15.733332 31.5,15.733332 L 31.5,19.579166 C 31.5,20.090501 31.972497,20.499999 32.5625,20.499999 L 49.4375,20.499999 C 50.027503,20.499999 50.5,20.090501 50.5,19.579166 L 50.5,15.733332 C 50.5,15.733332 47.5,8.3395831 47.5,8.3395831 C 47.29943,7.9119564 47.071486,7.4999998 46.53125,7.4999998 L 35.46875,7.4999998 z" style="opacity:1;fill:url(#linearGradient6273);fill-opacity:1;stroke:#888a85;stroke-width:.99999988;stroke-linecap:round;stroke-linejoin:round;stroke-miterlimit:4;stroke-dasharray:none;stroke-dashoffset:.7;stroke-opacity:1"/><path id="path6898" d="M 36,10 L 33.65625,15 L 34.5,16 L 48,16 L 48.34375,15 L 46,10 L 36,10 z" style="fill:url(#linearGradient6275);fill-opacity:1;stroke:none;stroke-width:1;stroke-linecap:round;stroke-linejoin:round;stroke-miterlimit:4;stroke-dashoffset:.7;stroke-opacity:1"/><rect id="rect6900" width="10" height="3" x="36" y="9" style="opacity:1;fill:url(#linearGradient6277);fill-opacity:1;stroke:none;stroke-width:1;stroke-linecap:round;stroke-linejoin:round;stroke-miterlimit:4;stroke-dasharray:none;stroke-dashoffset:.7;stroke-opacity:1"/><path id="path6902" d="M 46,8.5 L 46,12 L 47.34375,15 L 48.8125,15 L 46,8.5 z" style="fill:url(#linearGradient6279);fill-opacity:1;stroke:none;stroke-width:1;stroke-linecap:round;stroke-linejoin:round;stroke-miterlimit:4;stroke-dashoffset:.7;stroke-opacity:1"/><path id="path6904" d="M 36,8.5 L 33.1875,15 L 34.65625,15 L 36,12 L 36,8.5 z" style="fill:url(#linearGradient6281);fill-opacity:1;stroke:none;stroke-width:1;stroke-linecap:round;stroke-linejoin:round;stroke-miterlimit:4;stroke-dashoffset:.7;stroke-opacity:1"/><path id="path6906" d="M -16.40625,5.5 C -16.436803,5.5492895 -16.490718,5.6417275 -16.5625,5.8125 C -16.5625,5.8125 -16.562436,5.8435693 -16.5625,5.84375 C -16.581506,5.8977984 -19.374973,13.800705 -19.5,14.15625 L -19.5,18.4375 C -19.5,18.493611 -19.493611,18.5 -19.4375,18.5 L -2.5625,18.5 C -2.5063892,18.5 -2.5,18.493611 -2.5,18.4375 L -2.5,14.15625 C -2.6250267,13.800705 -5.418494,5.8977984 -5.4375,5.84375 C -5.4375636,5.8435693 -5.4375,5.8125 -5.4375,5.8125 C -5.5092816,5.6417275 -5.5631974,5.5492896 -5.59375,5.5 L -16.40625,5.5 z" transform="matrix(1,0,0,0.8461538,52,3.846154)" style="opacity:.42672412;fill:none;fill-opacity:1;stroke:#fff;stroke-width:1.08711457;stroke-linecap:round;stroke-linejoin:round;stroke-miterlimit:4;stroke-dasharray:none;stroke-dashoffset:.7;stroke-opacity:1"/><path id="path6908" d="M 6.21875,6.46875 C 6.154118,6.6801314 6.078055,6.9854761 5.96875,7.34375 C 5.75014,8.0602978 5.4616777,9.0359982 5.15625,10.03125 C 4.7089362,11.488845 4.3480127,12.543344 4.03125,13.53125 L 7.5,13.53125 C 7.7574313,13.529938 8.0048003,13.631135 8.1875,13.8125 L 8.90625,14.53125 L 13.09375,14.53125 L 13.8125,13.8125 C 13.9952,13.631135 14.242569,13.529938 14.5,13.53125 L 17.96875,13.53125 C 17.651987,12.543344 17.291064,11.488845 16.84375,10.03125 C 16.538322,9.0359982 16.24986,8.0602978 16.03125,7.34375 C 15.921945,6.9854761 15.845882,6.6801314 15.78125,6.46875 L 6.21875,6.46875 z" transform="matrix(1,0,0,0.7560969,30,4.5442174)" style="opacity:.28017243;fill:none;fill-opacity:1;stroke:url(#linearGradient6283);stroke-width:1.15003562;stroke-linecap:round;stroke-linejoin:round;stroke-miterlimit:4;stroke-dashoffset:.7;stroke-opacity:1"/><path id="path6910" d="M 35.59375,8.5000001 C 35.565772,8.5357547 35.500442,8.6102454 35.4375,8.7250001 C 35.423835,8.7499138 35.420301,8.7473467 35.40625,8.7750001 C 35.365295,8.8681716 32.951697,14.470677 32.5,15.5 L 37.5,15.5 L 38.5,16.5 L 43.5,16.5 L 44.5,15.5 L 49.5,15.5 C 49.048303,14.470677 46.634705,8.8681716 46.59375,8.7750001 C 46.5934,8.7742036 46.5625,8.7250001 46.5625,8.7250001 C 46.499558,8.6102454 46.434228,8.5357547 46.40625,8.5000001 L 35.59375,8.5000001 z" style="opacity:1;fill:none;fill-opacity:1;stroke:url(#radialGradient6285);stroke-width:.99999994;stroke-linecap:round;stroke-linejoin:round;stroke-miterlimit:4;stroke-dashoffset:.7;stroke-opacity:1"/><path id="path6992" d="M 35.5,7.5 L 41,2 L 46.5,7.5 L 46.5,8.5 L 43.5,8.5 L 43.5,12.5 L 38.5,12.5 L 38.5,8.5 L 35.5,8.5 L 35.5,7.5 z" style="opacity:.35775859;fill:#fff;fill-opacity:1;fill-rule:evenodd;stroke:#fff;stroke-width:1px;stroke-linecap:butt;stroke-linejoin:miter;stroke-opacity:1"/><g id="g6912" transform="matrix(1,0,0,-1,30,12)"><g id="g6914" transform="matrix(0,-1,1,0,-5,13)"><path id="path6916" d="M 7.5,10.5 L 2,16 L 7.5,21.5 L 8.5,21.5 L 8.5,18.5 L 12.5,18.5 L 12.5,13.5 L 8.5,13.5 L 8.5,10.5 L 7.5,10.5 z" style="fill:#fce94f;fill-opacity:1;fill-rule:evenodd;stroke:#c4a000;stroke-width:1px;stroke-linecap:butt;stroke-linejoin:miter;stroke-opacity:1"/><path style="opacity:.65;fill:none;fill-opacity:1;fill-rule:evenodd;stroke:#fff;stroke-width:1px;stroke-linecap:butt;stroke-linejoin:miter;stroke-opacity:1" id="path6918" d="M 11.5,14.53125 L 8.5,14.53125 C 8.22527,14.535314 7.9605998,14.42797 7.7663151,14.233685 C 7.5720303,14.0394 7.4646865,13.77473 7.46875,13.5 L 7.46875,11.96875 L 3.5,16 L 7.46875,20.03125 L 7.46875,18.5 C 7.4646865,18.22527 7.5720303,17.9606 7.7663151,17.766315 C 7.9605998,17.57203 8.22527,17.464686 8.5,17.46875 L 11.5,17.46875 L 11.5,14.53125 z"/></g><g id="g6920"><g id="g6922"><g id="g6924"><rect id="rect6926" width="1" height="1" x="-11" y="11" transform="matrix(0,-1,1,0,0,0)" style="fill:#c4a000;fill-opacity:1;fill-rule:evenodd;stroke:none;stroke-width:2;stroke-linecap:round;stroke-linejoin:miter;stroke-miterlimit:4;stroke-dasharray:none;stroke-dashoffset:.69999992;stroke-opacity:1"/><rect id="rect6928" width="1" height="1" x="-10" y="12" transform="matrix(0,-1,1,0,0,0)" style="fill:#c4a000;fill-opacity:1;fill-rule:evenodd;stroke:none;stroke-width:2;stroke-linecap:round;stroke-linejoin:miter;stroke-miterlimit:4;stroke-dasharray:none;stroke-dashoffset:.69999992;stroke-opacity:1"/><rect id="rect6930" width="1" height="1" x="-9" y="13" transform="matrix(0,-1,1,0,0,0)" style="fill:#c4a000;fill-opacity:1;fill-rule:evenodd;stroke:none;stroke-width:2;stroke-linecap:round;stroke-linejoin:miter;stroke-miterlimit:4;stroke-dasharray:none;stroke-dashoffset:.69999992;stroke-opacity:1"/><rect id="rect6932" width="1" height="1" x="-8" y="14" transform="matrix(0,-1,1,0,0,0)" style="fill:#c4a000;fill-opacity:1;fill-rule:evenodd;stroke:none;stroke-width:2;stroke-linecap:round;stroke-linejoin:miter;stroke-miterlimit:4;stroke-dasharray:none;stroke-dashoffset:.69999992;stroke-opacity:1"/><rect id="rect6934" width="1" height="1" x="-7" y="15" transform="matrix(0,-1,1,0,0,0)" style="fill:#c4a000;fill-opacity:1;fill-rule:evenodd;stroke:none;stroke-width:2;stroke-linecap:round;stroke-linejoin:miter;stroke-miterlimit:4;stroke-dasharray:none;stroke-dashoffset:.69999992;stroke-opacity:1"/><rect style="fill:#c4a000;fill-opacity:1;fill-rule:evenodd;stroke:none;stroke-width:2;stroke-linecap:round;stroke-linejoin:miter;stroke-miterlimit:4;stroke-dasharray:none;stroke-dashoffset:.69999992;stroke-opacity:1" id="rect6936" width="1" height="1" x="-6" y="16" transform="matrix(0,-1,1,0,0,0)"/></g><g id="g6938"><rect id="rect6940" width="1" height="1" x="-7" y="6" transform="matrix(0,-1,1,0,0,0)" style="fill:#c4a000;fill-opacity:1;fill-rule:evenodd;stroke:none;stroke-width:2;stroke-linecap:round;stroke-linejoin:miter;stroke-miterlimit:4;stroke-dasharray:none;stroke-dashoffset:.69999992;stroke-opacity:1"/><rect id="rect6942" width="1" height="1" x="-8" y="7" transform="matrix(0,-1,1,0,0,0)" style="fill:#c4a000;fill-opacity:1;fill-rule:evenodd;stroke:none;stroke-width:2;stroke-linecap:round;stroke-linejoin:miter;stroke-miterlimit:4;stroke-dasharray:none;stroke-dashoffset:.69999992;stroke-opacity:1"/><rect id="rect6944" width="1" height="1" x="-9" y="8" transform="matrix(0,-1,1,0,0,0)" style="fill:#c4a000;fill-opacity:1;fill-rule:evenodd;stroke:none;stroke-width:2;stroke-linecap:round;stroke-linejoin:miter;stroke-miterlimit:4;stroke-dasharray:none;stroke-dashoffset:.69999992;stroke-opacity:1"/><rect id="rect6946" width="1" height="1" x="-10" y="9" transform="matrix(0,-1,1,0,0,0)" style="fill:#c4a000;fill-opacity:1;fill-rule:evenodd;stroke:none;stroke-width:2;stroke-linecap:round;stroke-linejoin:miter;stroke-miterlimit:4;stroke-dasharray:none;stroke-dashoffset:.69999992;stroke-opacity:1"/><rect style="fill:#c4a000;fill-opacity:1;fill-rule:evenodd;stroke:none;stroke-width:2;stroke-linecap:round;stroke-linejoin:miter;stroke-miterlimit:4;stroke-dasharray:none;stroke-dashoffset:.69999992;stroke-opacity:1" id="rect6948" width="1" height="1" x="-6" y="5" transform="matrix(0,-1,1,0,0,0)"/><rect id="rect6950" width="1" height="1" x="-11" y="10" transform="matrix(0,-1,1,0,0,0)" style="fill:#c4a000;fill-opacity:1;fill-rule:evenodd;stroke:none;stroke-width:2;stroke-linecap:round;stroke-linejoin:miter;stroke-miterlimit:4;stroke-dasharray:none;stroke-dashoffset:.69999992;stroke-opacity:1"/></g></g><g id="g6952"><g id="g6954"><rect id="rect6956" width="1" height="1" x="-10" y="11" transform="matrix(0,-1,1,0,0,0)" style="opacity:.875;fill:#fff;fill-opacity:1;fill-rule:evenodd;stroke:none;stroke-width:2;stroke-linecap:round;stroke-linejoin:miter;stroke-miterlimit:4;stroke-dasharray:none;stroke-dashoffset:.69999992;stroke-opacity:1"/><rect id="rect6958" width="1" height="1" x="-9" y="12" transform="matrix(0,-1,1,0,0,0)" style="opacity:.875;fill:#fff;fill-opacity:1;fill-rule:evenodd;stroke:none;stroke-width:2;stroke-linecap:round;stroke-linejoin:miter;stroke-miterlimit:4;stroke-dasharray:none;stroke-dashoffset:.69999992;stroke-opacity:1"/><rect id="rect6960" width="1" height="1" x="-8" y="13" transform="matrix(0,-1,1,0,0,0)" style="opacity:.875;fill:#fff;fill-opacity:1;fill-rule:evenodd;stroke:none;stroke-width:2;stroke-linecap:round;stroke-linejoin:miter;stroke-miterlimit:4;stroke-dasharray:none;stroke-dashoffset:.69999992;stroke-opacity:1"/><rect id="rect6962" width="1" height="1" x="-7" y="14" transform="matrix(0,-1,1,0,0,0)" style="opacity:.875;fill:#fff;fill-opacity:1;fill-rule:evenodd;stroke:none;stroke-width:2;stroke-linecap:round;stroke-linejoin:miter;stroke-miterlimit:4;stroke-dasharray:none;stroke-dashoffset:.69999992;stroke-opacity:1"/><rect id="rect6964" width="1" height="1" x="-6" y="15" transform="matrix(0,-1,1,0,0,0)" style="opacity:.875;fill:#fff;fill-opacity:1;fill-rule:evenodd;stroke:none;stroke-width:2;stroke-linecap:round;stroke-linejoin:miter;stroke-miterlimit:4;stroke-dasharray:none;stroke-dashoffset:.69999992;stroke-opacity:1"/></g><g id="g6966"><rect id="rect6968" width="1" height="1" x="-7" y="7" transform="matrix(0,-1,1,0,0,0)" style="opacity:.875;fill:#fff;fill-opacity:1;fill-rule:evenodd;stroke:none;stroke-width:2;stroke-linecap:round;stroke-linejoin:miter;stroke-miterlimit:4;stroke-dasharray:none;stroke-dashoffset:.69999992;stroke-opacity:1"/><rect id="rect6970" width="1" height="1" x="-8" y="8" transform="matrix(0,-1,1,0,0,0)" style="opacity:.875;fill:#fff;fill-opacity:1;fill-rule:evenodd;stroke:none;stroke-width:2;stroke-linecap:round;stroke-linejoin:miter;stroke-miterlimit:4;stroke-dasharray:none;stroke-dashoffset:.69999992;stroke-opacity:1"/><rect id="rect6972" width="1" height="1" x="-9" y="9" transform="matrix(0,-1,1,0,0,0)" style="opacity:.875;fill:#fff;fill-opacity:1;fill-rule:evenodd;stroke:none;stroke-width:2;stroke-linecap:round;stroke-linejoin:miter;stroke-miterlimit:4;stroke-dasharray:none;stroke-dashoffset:.69999992;stroke-opacity:1"/><rect id="rect6974" width="1" height="1" x="-6" y="6" transform="matrix(0,-1,1,0,0,0)" style="opacity:.875;fill:#fff;fill-opacity:1;fill-rule:evenodd;stroke:none;stroke-width:2;stroke-linecap:round;stroke-linejoin:miter;stroke-miterlimit:4;stroke-dasharray:none;stroke-dashoffset:.69999992;stroke-opacity:1"/><rect id="rect6976" width="1" height="1" x="-10" y="10" transform="matrix(0,-1,1,0,0,0)" style="opacity:.875;fill:#fff;fill-opacity:1;fill-rule:evenodd;stroke:none;stroke-width:2;stroke-linecap:round;stroke-linejoin:miter;stroke-miterlimit:4;stroke-dasharray:none;stroke-dashoffset:.69999992;stroke-opacity:1"/></g></g></g></g></g></g></svg>