<svg xmlns="http://www.w3.org/2000/svg" xmlns:svg="http://www.w3.org/2000/svg" xmlns:xlink="http://www.w3.org/1999/xlink" id="svg5125" width="32" height="16" version="1.0"><defs id="defs5127"><linearGradient id="linearGradient6875"><stop id="stop6877" offset="0" style="stop-color:#000;stop-opacity:1"/><stop id="stop6879" offset="1" style="stop-color:#fff;stop-opacity:1"/></linearGradient><linearGradient id="linearGradient5168"><stop id="stop5170" offset="0" style="stop-color:#000;stop-opacity:1"/><stop id="stop5172" offset="1" style="stop-color:#000;stop-opacity:0"/></linearGradient><filter id="filter5260" width="1.281" height="2.414" x="-.141" y="-.707"><feGaussianBlur id="feGaussianBlur5262" stdDeviation="1.179"/></filter><linearGradient id="linearGradient5156"><stop id="stop5158" offset="0" style="stop-color:#cbcbc4;stop-opacity:1"/><stop style="stop-color:#878983;stop-opacity:1" id="stop5160" offset=".723"/><stop id="stop5162" offset="1" style="stop-color:#c9cac7;stop-opacity:1"/></linearGradient><filter id="filter5312" width="1.361" height="1.524" x="-.181" y="-.262"><feGaussianBlur id="feGaussianBlur5314" stdDeviation=".386"/></filter><linearGradient id="linearGradient5324"><stop id="stop5326" offset="0" style="stop-color:#fff;stop-opacity:1"/><stop id="stop5328" offset="1" style="stop-color:#fff;stop-opacity:0"/></linearGradient><linearGradient id="linearGradient6765" x1="18.923" x2="18.907" y1="10.653" y2="5.084" gradientTransform="matrix(1.0225564,0,0,1.0098039,21.752672,-2.9985005)" gradientUnits="userSpaceOnUse" xlink:href="#linearGradient5156"/><linearGradient id="linearGradient6777" x1="16.906" x2="16.906" y1="16.75" y2="11.694" gradientTransform="matrix(-0.7986885,0,0,0.9080923,31.7993,-24.236296)" gradientUnits="userSpaceOnUse" xlink:href="#linearGradient5324"/><linearGradient id="linearGradient6781" x1="17.436" x2="17.294" y1="6" y2="16.64" gradientTransform="matrix(0.7986885,0,0,0.8693491,9.8875434,-18.176176)" gradientUnits="userSpaceOnUse" xlink:href="#linearGradient5156"/><linearGradient id="linearGradient6802" x1="14.057" x2="14" y1="16.481" y2="7.156" gradientUnits="userSpaceOnUse" xlink:href="#linearGradient5324"/><linearGradient id="linearGradient6861" x1="12.345" x2="12.271" y1="3.978" y2="10.784" gradientUnits="userSpaceOnUse" xlink:href="#linearGradient5156"/><radialGradient id="radialGradient6889" cx="12.188" cy="19.625" r="10.063" fx="12.188" fy="19.625" gradientTransform="matrix(1,0,0,0.1987578,0,15.724379)" gradientUnits="userSpaceOnUse" xlink:href="#linearGradient5168"/><linearGradient id="linearGradient6921" x1=".813" x2="1.984" y1="7.875" y2="7.875" gradientTransform="matrix(3.6041364,0,0,1.5837658,-33.062638,-1.3176926)" gradientUnits="userSpaceOnUse" xlink:href="#linearGradient6875"/><mask id="mask6917" maskUnits="userSpaceOnUse"><rect style="fill:url(#linearGradient6921);fill-opacity:1;stroke:none;stroke-width:1;stroke-linecap:butt;stroke-linejoin:miter;stroke-miterlimit:4;stroke-dasharray:none;stroke-dashoffset:0;stroke-opacity:1" id="rect6919" width="21.344" height="12.599" x="-32.928" y="5.089" transform="scale(-1,1)"/></mask><linearGradient id="linearGradient6927" x1=".813" x2="1.984" y1="7.875" y2="7.875" gradientTransform="matrix(2.8785823,0,0,1.2649355,-7.0383056e-2,-2.1167256)" gradientUnits="userSpaceOnUse" xlink:href="#linearGradient6875"/><mask id="mask6923" maskUnits="userSpaceOnUse"><rect style="fill:url(#linearGradient6927);fill-opacity:1;stroke:none;stroke-width:1;stroke-linecap:butt;stroke-linejoin:miter;stroke-miterlimit:4;stroke-dasharray:none;stroke-dashoffset:0;stroke-opacity:1" id="rect6925" width="17.047" height="10.063" x=".037" y="3"/></mask><linearGradient id="linearGradient6933" x1=".813" x2="1.984" y1="7.875" y2="7.875" gradientTransform="matrix(2.8785823,0,0,1.2649355,-7.0383056e-2,-2.1167256)" gradientUnits="userSpaceOnUse" xlink:href="#linearGradient6875"/><mask id="mask6929" maskUnits="userSpaceOnUse"><rect style="fill:url(#linearGradient6933);fill-opacity:1;stroke:none;stroke-width:1;stroke-linecap:butt;stroke-linejoin:miter;stroke-miterlimit:4;stroke-dasharray:none;stroke-dashoffset:0;stroke-opacity:1" id="rect6931" width="17.047" height="10.063" x=".037" y="3"/></mask><linearGradient id="linearGradient6939" x1=".813" x2="1.984" y1="7.875" y2="7.875" gradientTransform="matrix(2.8785823,0,0,1.2649355,-7.0383056e-2,-2.1167256)" gradientUnits="userSpaceOnUse" xlink:href="#linearGradient6875"/><mask id="mask6935" maskUnits="userSpaceOnUse"><rect style="fill:url(#linearGradient6939);fill-opacity:1;stroke:none;stroke-width:1;stroke-linecap:butt;stroke-linejoin:miter;stroke-miterlimit:4;stroke-dasharray:none;stroke-dashoffset:0;stroke-opacity:1" id="rect6937" width="17.047" height="10.063" x=".037" y="3"/></mask><linearGradient id="linearGradient6955" x1="12.345" x2="12.271" y1="3.978" y2="10.784" gradientUnits="userSpaceOnUse" xlink:href="#linearGradient5156"/><linearGradient id="linearGradient6957" x1="14.057" x2="14" y1="16.481" y2="7.156" gradientUnits="userSpaceOnUse" xlink:href="#linearGradient5324"/></defs><metadata id="metadata5130"/><g id="layer1"><path style="opacity:.1781609;fill:url(#radialGradient6889);fill-opacity:1;fill-rule:evenodd;stroke:none;stroke-width:1;stroke-linecap:square;stroke-linejoin:miter;marker:none;marker-start:none;marker-mid:none;marker-end:none;stroke-miterlimit:2.25;stroke-dasharray:none;stroke-dashoffset:0;stroke-opacity:1;visibility:visible;display:inline;overflow:visible;filter:url(#filter5260);enable-background:accumulate" id="path5166" d="M 22.25,19.625 A 10.0625,2 0 1 1 2.125,19.625 A 10.0625,2 0 1 1 22.25,19.625 z" transform="matrix(1.031846,0,0,0.7986885,3.6133146,-2.277603)"/><path style="opacity:.45402299;fill:none;fill-opacity:1;fill-rule:evenodd;stroke:url(#linearGradient6777);stroke-width:1.00000012;stroke-linecap:square;stroke-linejoin:miter;stroke-miterlimit:2.25;stroke-dasharray:none;stroke-dashoffset:0;stroke-opacity:1" id="path5332" d="M 21.017005,-15.609419 L 21.017005,-9.7068193 L 20.617661,-9.2527729 C 17.458887,-9.2527729 16.624218,-12.885142 16.624218,-12.885142 C 11.069379,-13.339188 10.938819,-11.349644 2.2838052,-10.281217"/><path style="opacity:.46948356;fill:none;fill-rule:evenodd;stroke:#dfe0de;stroke-width:1px;stroke-linecap:round;stroke-linejoin:miter;stroke-opacity:1" id="path6821" d="M 3,7.5 L 8.9375,7.5" mask="url(#mask6929)"/><g id="g6945"><path id="rect6806" d="M 15.6875,3.5 C 13.088482,3.5 10.943767,5.1494833 10.5625,7.3125 L 10.5625,6.53125 L 1.53125,6.53125 L 1.53125,9.40625 L 10.5625,9.40625 L 10.5625,8.6875 C 10.943767,10.850516 13.088482,12.5 15.6875,12.5 L 16.5,11.4375 L 16.5,4.71875 L 15.6875,3.5 z" mask="url(#mask6935)" style="fill:url(#linearGradient6861);fill-opacity:1;stroke:#555753;stroke-width:1;stroke-linecap:butt;stroke-linejoin:miter;stroke-miterlimit:4;stroke-dasharray:none;stroke-dashoffset:0;stroke-opacity:1"/><path style="fill:none;fill-rule:evenodd;stroke:url(#linearGradient6802);stroke-width:1px;stroke-linecap:butt;stroke-linejoin:miter;stroke-opacity:1" id="path6771" d="M 14.760854,4.5537089 L 15.162639,4.519141 L 15.47425,5 L 15.518444,10.91767 L 15.129729,11.471946 L 14.884357,11.468273 C 14.884357,11.468273 11.53468,11.007527 11.53468,8.0892429 C 11.53468,5.2151534 14.760854,4.5537089 14.760854,4.5537089 z" mask="url(#mask6923)"/></g><path id="path6819" d="M 13.479223,8.2668741 L 14.142136,7.6481556 C 16.950937,7.8603852 17.897062,9.4547099 18.605747,11.18369 C 17.332956,10.494445 17.320424,9.3668499 13.572986,9.5383523 L 13.479223,8.2668741 z" mask="url(#mask6917)" transform="matrix(-0.7986885,0,0,0.7986885,26.336366,-1.0642997)" style="opacity:.72988503;fill:#fff;fill-opacity:1;fill-rule:evenodd;stroke:none;stroke-width:1;stroke-linecap:square;stroke-linejoin:miter;marker:none;marker-start:none;marker-mid:none;marker-end:none;stroke-miterlimit:2.25;stroke-dasharray:none;stroke-dashoffset:0;stroke-opacity:1;visibility:visible;display:inline;overflow:visible;filter:url(#filter5312);enable-background:accumulate"/><g id="g6949" transform="matrix(-1,0,0,1,33.057256,0.133437)"><path id="path6951" d="M 15.6875,3.5 C 13.088482,3.5 10.943767,5.1494833 10.5625,7.3125 L 10.5625,6.53125 L 1.53125,6.53125 L 1.53125,9.40625 L 10.5625,9.40625 L 10.5625,8.6875 C 10.943767,10.850516 13.088482,12.5 15.6875,12.5 L 16.5,11.4375 L 16.5,4.71875 L 15.6875,3.5 z" mask="url(#mask6935)" style="fill:url(#linearGradient6955);fill-opacity:1;stroke:#555753;stroke-width:1;stroke-linecap:butt;stroke-linejoin:miter;stroke-miterlimit:4;stroke-dasharray:none;stroke-dashoffset:0;stroke-opacity:1"/><path style="fill:none;fill-rule:evenodd;stroke:url(#linearGradient6957);stroke-width:1px;stroke-linecap:butt;stroke-linejoin:miter;stroke-opacity:1" id="path6953" d="M 14.760854,4.5537089 L 15.162639,4.519141 L 15.47425,5 L 15.518444,10.91767 L 15.129729,11.471946 L 14.884357,11.468273 C 14.884357,11.468273 11.53468,11.007527 11.53468,8.0892429 C 11.53468,5.2151534 14.760854,4.5537089 14.760854,4.5537089 z" mask="url(#mask6923)"/></g></g></svg>