<svg xmlns="http://www.w3.org/2000/svg" xmlns:cc="http://web.resource.org/cc/" xmlns:svg="http://www.w3.org/2000/svg" xmlns:xlink="http://www.w3.org/1999/xlink" id="svg11300" width="48" height="48"><defs id="defs3"><linearGradient id="linearGradient4712"><stop style="stop-color:#5b8ccb;stop-opacity:1" id="stop4714" offset="0"/><stop style="stop-color:#3465a4;stop-opacity:1" id="stop4716" offset="1"/></linearGradient><linearGradient id="linearGradient4694"><stop style="stop-color:#e9f1f8;stop-opacity:1" id="stop4696" offset="0"/><stop style="stop-color:#729fcf;stop-opacity:.83653843" id="stop4698" offset="1"/></linearGradient><linearGradient id="linearGradient4686"><stop style="stop-color:#fff;stop-opacity:1" id="stop4688" offset="0"/><stop style="stop-color:#fff;stop-opacity:0" id="stop4690" offset="1"/></linearGradient><linearGradient id="linearGradient4678"><stop style="stop-color:#fce94f;stop-opacity:1" id="stop4680" offset="0"/><stop style="stop-color:#fce94f;stop-opacity:0" id="stop4682" offset="1"/></linearGradient><linearGradient id="linearGradient4666"><stop style="stop-color:#fff;stop-opacity:1" id="stop4668" offset="0"/><stop style="stop-color:#fff;stop-opacity:0" id="stop4670" offset="1"/></linearGradient><linearGradient id="linearGradient20210"><stop style="stop-color:#000;stop-opacity:.51546389" id="stop20212" offset="0"/><stop id="stop20218" offset=".552" style="stop-color:#000;stop-opacity:.14432989"/><stop style="stop-color:#000;stop-opacity:0" id="stop20214" offset="1"/></linearGradient><radialGradient id="radialGradient4646" cx="14.772" cy="74.21" r="7.829" fx="14.772" fy="74.21" gradientTransform="scale(1.764278,0.566804)" gradientUnits="userSpaceOnUse" xlink:href="#linearGradient20210"/><radialGradient id="radialGradient4672" cx="25.756" cy="9.658" r="12.14" fx="25.756" fy="9.658" gradientTransform="matrix(2.138401,-5.903375e-16,6.984997e-16,2.530201,-29.32054,-16.45375)" gradientUnits="userSpaceOnUse" xlink:href="#linearGradient4666"/><linearGradient id="linearGradient4684" x1="28.576" x2="28.727" y1="20.437" y2="26.978" gradientUnits="userSpaceOnUse" xlink:href="#linearGradient4678"/><linearGradient id="linearGradient4692" x1="28.339" x2="28.788" y1="20.702" y2="26.89" gradientUnits="userSpaceOnUse" xlink:href="#linearGradient4686"/><radialGradient id="radialGradient4700" cx="25.756" cy="10.718" r="13.244" fx="25.756" fy="10.718" gradientTransform="matrix(1.821341,-5.36498e-16,6.351477e-16,2.156244,-21.15439,-13.79104)" gradientUnits="userSpaceOnUse" xlink:href="#linearGradient4694"/><linearGradient id="linearGradient4718" x1="20.644" x2="25.756" y1="9.04" y2="26.894" gradientUnits="userSpaceOnUse" xlink:href="#linearGradient4712"/></defs><metadata id="metadata4"/><g id="layer1"><g id="g4634" transform="translate(-60.46391,17)"><path style="opacity:.8;color:#000;fill:url(#radialGradient4646);fill-opacity:1;fill-rule:nonzero;stroke:none;stroke-width:2;stroke-linecap:round;stroke-linejoin:round;marker:none;marker-start:none;marker-mid:none;marker-end:none;stroke-miterlimit:4;stroke-dashoffset:0;stroke-opacity:1;visibility:visible;display:inline;overflow:visible" id="path20208" d="M 39.875 42.0625 A 13.8125 4.4375 0 1 1 12.25,42.0625 A 13.8125 4.4375 0 1 1 39.875 42.0625 z" transform="matrix(1.197183,0,0,1.098591,55.79842,-20.08448)"/><path id="path19509" d="M 83.002195,22.877541 L 83.002195,24.260545 C 83.002195,25.643549 84.412925,26.872887 85.999995,26.872887 C 87.587066,26.872887 88.997794,25.643549 88.997794,24.260545 L 88.997794,22.877541 L 83.002195,22.877541 z" style="fill:#555753;fill-rule:nonzero;stroke:#2e3436;stroke-miterlimit:4;stroke-opacity:1"/><path style="color:#000;fill:#aeae57;fill-opacity:1;fill-rule:nonzero;stroke:#c4a000;stroke-width:2.00000095;stroke-linecap:round;stroke-linejoin:round;marker:none;marker-start:none;marker-mid:none;marker-end:none;stroke-miterlimit:4;stroke-dashoffset:0;stroke-opacity:1;visibility:visible;display:inline;overflow:visible" id="path3209" d="M 85.835145,11.623519 C 82.568355,11.6156 78.863714,12.580499 80.871174,14.404546 C 80.37345,14.606241 79.661991,15.056698 79.74586,16.11077 C 79.792165,16.661264 80.373008,16.99918 81.167349,17.247287 C 80.266845,17.881784 79.693849,18.55227 79.74586,19.170624 C 79.791625,19.714699 80.36024,20.087289 81.138339,20.336283 C 80.260526,20.963478 79.694561,21.649745 79.74586,22.259619 C 79.824263,23.191711 81.825461,24.235779 86.158773,24.115531 C 89.278706,24.030099 92.031874,23.468343 92.249159,22.259619 C 92.33448,21.784995 91.947797,21.34215 91.34985,20.948254 C 91.797476,20.495031 92.111066,20.035337 92.075099,19.607746 C 92.029119,19.061107 91.467192,18.690738 90.682621,18.442088 C 91.560434,17.814893 92.126398,17.128626 92.075099,16.518751 C 92.029119,15.972112 91.467192,15.630886 90.682621,15.382234 C 91.570901,14.751651 92.126729,14.072695 92.075099,13.458897 C 92.01771,12.776619 88.90549,11.630962 85.835145,11.623519 z"/><path id="path4702" d="M -3.5355339 27.228739 A 10.341436 3.2703688 0 1 1 -24.218407,27.228739 A 10.341436 3.2703688 0 1 1 -3.5355339 27.228739 z" transform="matrix(0.596154,-0.127796,6.358129e-2,0.755885,92.37142,-7.700825)" style="color:#000;fill:#fce94f;fill-opacity:1;fill-rule:nonzero;stroke:none;stroke-width:.13035245;stroke-linecap:round;stroke-linejoin:round;marker:none;marker-start:none;marker-mid:none;marker-end:none;stroke-miterlimit:4;stroke-dashoffset:0;stroke-opacity:1;visibility:visible;display:inline;overflow:visible"/><path style="color:#000;fill:#fce94f;fill-opacity:1;fill-rule:nonzero;stroke:none;stroke-width:.08828904;stroke-linecap:round;stroke-linejoin:round;marker:none;marker-start:none;marker-mid:none;marker-end:none;stroke-miterlimit:4;stroke-dashoffset:0;stroke-opacity:1;visibility:visible;display:inline;overflow:visible" id="path3183" d="M 92.173603,22.21572 C 91.956317,23.424444 88.881191,24.10655 83.959276,23.858968 C 80.842089,23.702168 80.663716,22.82605 80.881,21.617325 C 81.098286,20.4086 83.804176,19.561647 86.920934,19.726804 C 90.037692,19.89196 92.390887,21.006996 92.173603,22.21572 z"/><path id="path1603" d="M -3.5355339 27.228739 A 10.341436 3.2703688 0 1 1 -24.218407,27.228739 A 10.341436 3.2703688 0 1 1 -3.5355339 27.228739 z" transform="matrix(0.596154,-0.127796,6.358129e-2,0.755885,92.37142,-1.469023)" style="color:#000;fill:#fce94f;fill-opacity:1;fill-rule:nonzero;stroke:none;stroke-width:.13035245;stroke-linecap:round;stroke-linejoin:round;marker:none;marker-start:none;marker-mid:none;marker-end:none;stroke-miterlimit:4;stroke-dashoffset:0;stroke-opacity:1;visibility:visible;display:inline;overflow:visible"/><path style="color:#000;fill:#fce94f;fill-opacity:1;fill-rule:nonzero;stroke:none;stroke-width:.13035245;stroke-linecap:round;stroke-linejoin:round;marker:none;marker-start:none;marker-mid:none;marker-end:none;stroke-miterlimit:4;stroke-dashoffset:0;stroke-opacity:1;visibility:visible;display:inline;overflow:visible" id="path2364" d="M -3.5355339 27.228739 A 10.341436 3.2703688 0 1 1 -24.218407,27.228739 A 10.341436 3.2703688 0 1 1 -3.5355339 27.228739 z" transform="matrix(0.596154,-0.127796,6.358129e-2,0.755885,92.37142,-4.544575)"/><path style="color:#000;fill:#fff;fill-opacity:1;fill-rule:nonzero;stroke:none;stroke-width:2;stroke-linecap:butt;stroke-linejoin:round;marker:none;marker-start:none;marker-mid:none;marker-end:none;stroke-miterlimit:4;stroke-dashoffset:0;stroke-opacity:1;visibility:visible;display:inline;overflow:visible" id="path20372" d="M 31 22.375 A 3.25 3.25 0 1 1 24.5,22.375 A 3.25 3.25 0 1 1 31 22.375 z" transform="matrix(0.331798,0,0,0.333302,73.20968,11.18361)"/><path id="path2435" d="M 31 22.375 A 3.25 3.25 0 1 1 24.5,22.375 A 3.25 3.25 0 1 1 31 22.375 z" transform="matrix(0.331798,0,0,0.333302,73.20968,14.17188)" style="color:#000;fill:#fff;fill-opacity:1;fill-rule:nonzero;stroke:none;stroke-width:2;stroke-linecap:butt;stroke-linejoin:round;marker:none;marker-start:none;marker-mid:none;marker-end:none;stroke-miterlimit:4;stroke-dashoffset:0;stroke-opacity:1;visibility:visible;display:inline;overflow:visible"/><path id="path4708" d="M 31 22.375 A 3.25 3.25 0 1 1 24.5,22.375 A 3.25 3.25 0 1 1 31 22.375 z" transform="matrix(0.331798,0,0,0.333302,73.20968,7.77736)" style="color:#000;fill:#fff;fill-opacity:1;fill-rule:nonzero;stroke:none;stroke-width:2;stroke-linecap:butt;stroke-linejoin:round;marker:none;marker-start:none;marker-mid:none;marker-end:none;stroke-miterlimit:4;stroke-dashoffset:0;stroke-opacity:1;visibility:visible;display:inline;overflow:visible"/><path style="color:#000;fill:#fce94f;fill-opacity:1;fill-rule:nonzero;stroke:none;stroke-width:.13035245;stroke-linecap:round;stroke-linejoin:round;marker:none;marker-start:none;marker-mid:none;marker-end:none;stroke-miterlimit:4;stroke-dashoffset:0;stroke-opacity:1;visibility:visible;display:inline;overflow:visible" id="path4710" d="M -3.5355339 27.228739 A 10.341436 3.2703688 0 1 1 -24.218407,27.228739 A 10.341436 3.2703688 0 1 1 -3.5355339 27.228739 z" transform="matrix(0.609516,1.48834e-2,-0.114607,0.749847,97.72817,-6.66803)"/></g><path style="opacity:1;color:#000;fill:url(#radialGradient4700);fill-opacity:1;fill-rule:evenodd;stroke:url(#linearGradient4718);stroke-width:1;stroke-linecap:butt;stroke-linejoin:miter;marker:none;marker-start:none;marker-mid:none;marker-end:none;stroke-miterlimit:4;stroke-dasharray:none;stroke-dashoffset:0;stroke-opacity:1;visibility:visible;display:inline;overflow:visible" id="path3885" d="M 25.016299,3.1474516 C 18.321938,3.5296683 13.011824,9.1020052 13.011824,15.891539 C 13.011824,19.71505 14.781329,22.976654 17.309622,26.548802 C 19.585619,29.764489 22.089448,31.201903 25.402359,31.201903 C 29.402442,31.201903 32.351562,29.370569 34.659499,25.279481 C 36.517396,21.98614 38.5,19.028746 38.5,15.891539 C 38.499998,8.8546137 32.792838,3.1474516 25.755912,3.1474516 C 25.50852,3.1474516 25.260223,3.1335247 25.016299,3.1474516 z"/><path id="path4664" d="M 25.074585,4.3431622 C 18.907767,4.6952587 14.016112,9.8284722 14.016112,16.082962 C 14.016112,19.254718 16.266547,22.356043 18.204035,25.485407 C 20.354966,28.959516 22.366767,29.828929 25.755913,29.828929 C 29.350248,29.828929 31.427593,28.752005 33.552794,25.114528 C 35.360199,22.020987 37.495714,19.061139 37.495714,16.082962 C 37.495712,9.6005762 32.2383,4.3431622 25.755913,4.3431622 C 25.528017,4.3431622 25.299287,4.3303328 25.074585,4.3431622 z" style="opacity:.59340671;color:#000;fill:none;fill-opacity:1;fill-rule:evenodd;stroke:url(#radialGradient4672);stroke-width:.99999994;stroke-linecap:butt;stroke-linejoin:miter;marker:none;marker-start:none;marker-mid:none;marker-end:none;stroke-miterlimit:4;stroke-dasharray:none;stroke-dashoffset:0;stroke-opacity:1;visibility:visible;display:inline;overflow:visible"/><path id="path4676" d="M 28.12132,29.232233 L 32,16.533748 C 28,14.768315 24,14.530464 20,17 L 21,20" style="opacity:1;color:#000;fill:none;fill-opacity:1;fill-rule:evenodd;stroke:url(#linearGradient4684);stroke-width:3;stroke-linecap:round;stroke-linejoin:round;marker:none;marker-start:none;marker-mid:none;marker-end:none;stroke-miterlimit:4;stroke-dasharray:none;stroke-dashoffset:0;stroke-opacity:1;visibility:visible;display:inline;overflow:visible"/><path style="opacity:1;color:#000;fill:none;fill-opacity:1;fill-rule:evenodd;stroke:url(#linearGradient4692);stroke-width:1;stroke-linecap:round;stroke-linejoin:round;marker:none;marker-start:none;marker-mid:none;marker-end:none;stroke-miterlimit:4;stroke-dasharray:none;stroke-dashoffset:0;stroke-opacity:1;visibility:visible;display:inline;overflow:visible" id="path4674" d="M 28.12132,29.055456 L 32,16.533748 C 28,14.768315 24,14.530464 20,17 L 21,20"/></g></svg>