<svg xmlns="http://www.w3.org/2000/svg" xmlns:svg="http://www.w3.org/2000/svg" xmlns:xlink="http://www.w3.org/1999/xlink" id="svg5125" width="16" height="32" version="1.0"><defs id="defs5127"><linearGradient id="linearGradient6875"><stop style="stop-color:#000;stop-opacity:1" id="stop6877" offset="0"/><stop style="stop-color:#fff;stop-opacity:1" id="stop6879" offset="1"/></linearGradient><linearGradient id="linearGradient5156"><stop style="stop-color:#cbcbc4;stop-opacity:1" id="stop5158" offset="0"/><stop id="stop5160" offset=".723" style="stop-color:#878983;stop-opacity:1"/><stop style="stop-color:#c9cac7;stop-opacity:1" id="stop5162" offset="1"/></linearGradient><filter id="filter5312" width="1.361" height="1.524" x="-.181" y="-.262"><feGaussianBlur id="feGaussianBlur5314" stdDeviation=".386"/></filter><linearGradient id="linearGradient5324"><stop style="stop-color:#fff;stop-opacity:1" id="stop5326" offset="0"/><stop style="stop-color:#fff;stop-opacity:0" id="stop5328" offset="1"/></linearGradient><linearGradient id="linearGradient6765" x1="18.923" x2="18.907" y1="10.653" y2="5.084" gradientTransform="matrix(1.0225564,0,0,1.0098039,21.752672,-2.9985005)" gradientUnits="userSpaceOnUse" xlink:href="#linearGradient5156"/><linearGradient id="linearGradient6781" x1="17.436" x2="17.294" y1="6" y2="16.64" gradientTransform="matrix(0.7986885,0,0,0.8693491,9.8875434,-18.176176)" gradientUnits="userSpaceOnUse" xlink:href="#linearGradient5156"/><linearGradient id="linearGradient6802" x1="14.057" x2="14" y1="16.481" y2="7.156" gradientUnits="userSpaceOnUse" xlink:href="#linearGradient5324"/><linearGradient id="linearGradient6861" x1="12.345" x2="12.271" y1="3.978" y2="10.784" gradientUnits="userSpaceOnUse" xlink:href="#linearGradient5156"/><linearGradient id="linearGradient6921" x1=".813" x2="1.984" y1="7.875" y2="7.875" gradientTransform="matrix(3.6041364,0,0,1.5837658,-33.062638,-1.3176926)" gradientUnits="userSpaceOnUse" xlink:href="#linearGradient6875"/><mask id="mask6917" maskUnits="userSpaceOnUse"><rect id="rect6919" width="21.344" height="12.599" x="-32.928" y="5.089" transform="scale(-1,1)" style="fill:url(#linearGradient6921);fill-opacity:1;stroke:none;stroke-width:1;stroke-linecap:butt;stroke-linejoin:miter;stroke-miterlimit:4;stroke-dasharray:none;stroke-dashoffset:0;stroke-opacity:1"/></mask><linearGradient id="linearGradient6927" x1=".813" x2="1.984" y1="7.875" y2="7.875" gradientTransform="matrix(2.8785823,0,0,1.2649355,-0.07038306,-2.1167256)" gradientUnits="userSpaceOnUse" xlink:href="#linearGradient6875"/><mask id="mask6923" maskUnits="userSpaceOnUse"><rect id="rect6925" width="17.047" height="10.063" x=".037" y="3" style="fill:url(#linearGradient6927);fill-opacity:1;stroke:none;stroke-width:1;stroke-linecap:butt;stroke-linejoin:miter;stroke-miterlimit:4;stroke-dasharray:none;stroke-dashoffset:0;stroke-opacity:1"/></mask><linearGradient id="linearGradient6933" x1=".813" x2="1.984" y1="7.875" y2="7.875" gradientTransform="matrix(2.8785823,0,0,1.2649355,-0.07038306,-2.1167256)" gradientUnits="userSpaceOnUse" xlink:href="#linearGradient6875"/><mask id="mask6929" maskUnits="userSpaceOnUse"><rect id="rect6931" width="17.047" height="10.063" x=".037" y="3" style="fill:url(#linearGradient6933);fill-opacity:1;stroke:none;stroke-width:1;stroke-linecap:butt;stroke-linejoin:miter;stroke-miterlimit:4;stroke-dasharray:none;stroke-dashoffset:0;stroke-opacity:1"/></mask><linearGradient id="linearGradient6939" x1=".813" x2="1.984" y1="7.875" y2="7.875" gradientTransform="matrix(2.8785823,0,0,1.2649355,-0.07038306,-2.1167256)" gradientUnits="userSpaceOnUse" xlink:href="#linearGradient6875"/><mask id="mask6935" maskUnits="userSpaceOnUse"><rect id="rect6937" width="17.047" height="10.063" x=".037" y="3" style="fill:url(#linearGradient6939);fill-opacity:1;stroke:none;stroke-width:1;stroke-linecap:butt;stroke-linejoin:miter;stroke-miterlimit:4;stroke-dasharray:none;stroke-dashoffset:0;stroke-opacity:1"/></mask><linearGradient id="linearGradient6955" x1="12.345" x2="12.271" y1="3.978" y2="10.784" gradientUnits="userSpaceOnUse" xlink:href="#linearGradient5156"/><linearGradient id="linearGradient6957" x1="14.057" x2="14" y1="16.481" y2="7.156" gradientUnits="userSpaceOnUse" xlink:href="#linearGradient5324"/></defs><metadata id="metadata5130"/><g id="layer1"><g id="g579" transform="rotate(90,8.0248254,7.5290472)"><g id="g568"><g id="g6945"><path style="fill:url(#linearGradient6861);fill-opacity:1;stroke:#555753;stroke-width:1;stroke-linecap:butt;stroke-linejoin:miter;stroke-miterlimit:4;stroke-dasharray:none;stroke-dashoffset:0;stroke-opacity:1" id="rect6806" d="m 15.6875,3.5 c -2.599018,0 -4.743733,1.6494833 -5.125,3.8125 V 6.53125 H 1.53125 v 2.875 H 10.5625 V 8.6875 c 0.381267,2.163016 2.525982,3.8125 5.125,3.8125 L 16.5,11.4375 V 4.71875 Z" mask="url(#mask6935)"/><path id="path6771" d="M 14.760854,4.5537089 15.162639,4.519141 15.47425,5 l 0.04419,5.91767 -0.388715,0.554276 -0.245372,-0.0037 c 0,0 -3.349677,-0.460746 -3.349677,-3.3790301 0,-2.8740895 3.226174,-3.535534 3.226174,-3.535534 z" mask="url(#mask6923)" style="fill:none;fill-rule:evenodd;stroke:url(#linearGradient6802);stroke-width:1px;stroke-linecap:butt;stroke-linejoin:miter;stroke-opacity:1"/></g><g id="g6949" transform="matrix(-1,0,0,1,33.057256,0.133437)"><path style="fill:url(#linearGradient6955);fill-opacity:1;stroke:#555753;stroke-width:1;stroke-linecap:butt;stroke-linejoin:miter;stroke-miterlimit:4;stroke-dasharray:none;stroke-dashoffset:0;stroke-opacity:1" id="path6951" d="m 15.6875,3.5 c -2.599018,0 -4.743733,1.6494833 -5.125,3.8125 V 6.53125 H 1.53125 v 2.875 H 10.5625 V 8.6875 c 0.381267,2.163016 2.525982,3.8125 5.125,3.8125 L 16.5,11.4375 V 4.71875 Z" mask="url(#mask6935)"/><path id="path6953" d="M 14.760854,4.5537089 15.162639,4.519141 15.47425,5 l 0.04419,5.91767 -0.388715,0.554276 -0.245372,-0.0037 c 0,0 -3.349677,-0.460746 -3.349677,-3.3790301 0,-2.8740895 3.226174,-3.535534 3.226174,-3.535534 z" mask="url(#mask6923)" style="fill:none;fill-rule:evenodd;stroke:url(#linearGradient6957);stroke-width:1px;stroke-linecap:butt;stroke-linejoin:miter;stroke-opacity:1"/></g></g><path style="opacity:.469484;fill:none;fill-rule:evenodd;stroke:#dfe0de;stroke-width:1px;stroke-linecap:round;stroke-linejoin:miter;stroke-opacity:1" id="path6821" d="M 3,7.5 H 8.9375" mask="url(#mask6929)"/><path id="path6819" d="M 13.479223,8.2668741 14.142136,7.6481556 C 16.950937,7.8603852 17.897062,9.4547099 18.605747,11.18369 17.332956,10.494445 17.320424,9.3668499 13.572986,9.5383523 Z" mask="url(#mask6917)" transform="matrix(-0.7986885,0,0,0.7986885,26.336366,-1.0642997)" style="display:inline;overflow:visible;visibility:visible;opacity:.729885;fill:#fff;fill-opacity:1;fill-rule:evenodd;stroke:none;stroke-width:1;stroke-linecap:square;stroke-linejoin:miter;stroke-miterlimit:2.25;stroke-dasharray:none;stroke-dashoffset:0;stroke-opacity:1;marker:none;marker-start:none;marker-mid:none;marker-end:none;filter:url(#filter5312);enable-background:accumulate"/></g></g></svg>