<svg xmlns="http://www.w3.org/2000/svg" xmlns:cc="http://web.resource.org/cc/" xmlns:svg="http://www.w3.org/2000/svg" xmlns:xlink="http://www.w3.org/1999/xlink" id="svg1306" width="48" height="48"><defs id="defs1308"><linearGradient id="linearGradient3201"><stop style="stop-color:#000;stop-opacity:1" id="stop3203" offset="0"/><stop style="stop-color:#000;stop-opacity:0" id="stop3205" offset="1"/></linearGradient><linearGradient id="linearGradient3191"><stop style="stop-color:#eeeeec;stop-opacity:1" id="stop3193" offset="0"/><stop style="stop-color:#d6d6d1;stop-opacity:1" id="stop3195" offset="1"/></linearGradient><radialGradient id="radialGradient3197" cx="24.063" cy="11.802" r="19.938" fx="24.063" fy="11.802" gradientTransform="matrix(1.476477,3.53805e-24,-2.708749e-24,1.406674,-11.46524,-4.222999)" gradientUnits="userSpaceOnUse" xlink:href="#linearGradient3191"/><radialGradient id="radialGradient3207" cx="26.618" cy="37.444" r="18.031" fx="26.618" fy="37.444" gradientTransform="matrix(1,0,0,0.282913,0,26.85053)" gradientUnits="userSpaceOnUse" xlink:href="#linearGradient3201"/></defs><metadata id="metadata1311"/><g id="layer1"><path style="opacity:.15384617;color:#000;fill:url(#radialGradient3207);fill-opacity:1;fill-rule:evenodd;stroke:none;stroke-width:1;stroke-linecap:butt;stroke-linejoin:miter;marker:none;marker-start:none;marker-mid:none;marker-end:none;stroke-miterlimit:10;stroke-dasharray:none;stroke-dashoffset:0;stroke-opacity:1;visibility:visible;display:inline;overflow:visible" id="path3199" d="M 44.648743 37.443905 A 18.031223 5.1012702 0 1 1 8.5862961,37.443905 A 18.031223 5.1012702 0 1 1 44.648743 37.443905 z" transform="translate(-0.606092,1.313198)"/><path style="opacity:1;fill:url(#radialGradient3197);fill-opacity:1;stroke:#babdb6;stroke-width:1;stroke-linecap:butt;stroke-linejoin:miter;stroke-miterlimit:10;stroke-dasharray:none;stroke-dashoffset:0;stroke-opacity:1" id="path1314" d="M 24.0625,5.5 C 13.330907,5.5 4.6249998,12.445999 4.625,21 C 4.625,29.554002 13.336993,37.176843 26.084296,36.577031 C 26.911799,39.209707 29.944331,42.378849 34.994924,42.489847 C 33.69488,40.824457 31.914639,39.165464 31.875,35.15625 C 38.708812,32.753174 43.5,27.332858 43.5,21 C 43.5,12.445998 34.794093,5.5000002 24.0625,5.5 z"/><path style="opacity:.78021978;fill:none;fill-opacity:1;stroke:#fff;stroke-width:1;stroke-linecap:round;stroke-linejoin:miter;stroke-miterlimit:4;stroke-dasharray:none;stroke-dashoffset:0;stroke-opacity:1" id="path1318" d="M 24,6.46875 C 13.778193,6.46875 5.4687498,12.957975 5.46875,20.96875 C 5.46875,28.979526 15.023016,36.851498 26.964054,35.469964 C 26.957966,38.126028 30.57914,40.950921 32.687927,41.181241 C 31.646298,39.674204 30.929437,37.323178 30.84375,34.4375 C 37.665975,32.2973 42.499999,27.076737 42.5,20.96875 C 42.5,12.957974 34.221808,6.4687502 24,6.46875 z"/><path style="fill:#c00;fill-opacity:1;fill-rule:evenodd;stroke:none;stroke-width:1px;stroke-linecap:butt;stroke-linejoin:miter;stroke-opacity:1" id="path1324" d="M 17.000000,29.035534 L 17.000000,12.000000 L 27.789919,23.080710 L 27.789919,12.923496 L 31.004205,12.923496 L 31.004205,30.080710 L 20.071429,19.000000 L 20.071429,29.035534 L 17.000000,29.035534 z"/></g></svg>